<svg height="512" viewBox="0 0 64 64" width="512" xmlns="http://www.w3.org/2000/svg"><g id="Certification-Warranty-Vaccine-Checklist-Laboratory"><path d="m53 12v48a1 1 0 0 1 -1 1h-40a1 1 0 0 1 -1-1v-56a1 1 0 0 1 1-1h32l.05.05-.05.05v7.9a1 1 0 0 0 1 1h7.9l.05-.05z" fill="#e6e7e8"/><path d="m48 52h3v-2h-2v-10a1 1 0 0 0 -1-1v-3a1 1 0 0 0 -1-1v-6h-2v6a1 1 0 0 0 -1 1v3a1 1 0 0 0 -1 1v10h-2v2h3v4h-2v2h8v-2h-2z" fill="#d8d7da"/><path d="m47 45v4h-1-4-1v-4z" fill="#c6c5ca"/><path d="m47 41v4h-6v-7a1 1 0 0 1 1-1h4a1 1 0 0 1 1 1z" fill="#5aaae7"/><path d="m46 34v3h-4v-3a1 1 0 0 1 1-1h2a1 1 0 0 1 1 1z" fill="#c6c5ca"/><path d="m42 49h4v6h-4z" fill="#c6c5ca"/><path d="m19 39h6v6h-6z" fill="#d8d7da"/><path d="m19 51h6v6h-6z" fill="#d8d7da"/><path d="m17 37h6v6h-6z" fill="#ff9811"/><path d="m17 49h6v6h-6z" fill="#ff9811"/><path d="m28 16v-3h1v-4h-8v4h1v3l-3 3v14h12v-14z" fill="#d8d7da"/><path d="m27 7v4h-1-6-1v-4z" fill="#1e81ce"/><path d="m29 17v14h-12v-14l3-3v-3h6v3z" fill="#5aaae7"/><path d="m52.95 11.95-.05.05h-7.9a1 1 0 0 1 -1-1v-7.9l.05-.05z" fill="#bcbec0"/><path d="m20 11h6v2h-6z" fill="#3d9ae2"/><path d="m42 49h4v2h-4z" fill="#acabb1"/><g fill="#bcbec0"><path d="m34 27h7v2h-7z"/><path d="m34 23h14v2h-14z"/><path d="m34 19h14v2h-14z"/><path d="m34 15h14v2h-14z"/></g><path d="m43 27h2v6h-2z" fill="#c6c5ca"/><path d="m39 48h10v2h-10z" fill="#acabb1"/><path d="m40 54h8v2h-8z" fill="#acabb1"/><path d="m44 40h3v2h-3z" fill="#3d9ae2"/><path d="m26 38h12v2h-12z" fill="#bcbec0"/><path d="m26 42h12v2h-12z" fill="#bcbec0"/><path d="m26 54h10v2h-10z" fill="#bcbec0"/><path d="m26 50h10v2h-10z" fill="#bcbec0"/><path d="m18.964 48.5h7.071v2h-7.071z" fill="#ff5023" transform="matrix(.707 -.707 .707 .707 -28.412 30.408)"/><path d="m18.964 36.5h7.071v2h-7.071z" fill="#ff5023" transform="matrix(.707 -.707 .707 .707 -19.926 26.893)"/><path d="m27 23h-2v-2h-2v2h-2v2h2v2h2v-2h2z" fill="#3d9ae2"/><path d="m26 22h-2v-2h-2v2h-2v2h2v2h2v-2h2z" fill="#ff9811"/></g></svg>