<?xml version="1.0" ?><svg style="enable-background:new 0 0 512 512;" version="1.1" viewBox="0 0 512 512" xml:space="preserve" xmlns="http://www.w3.org/2000/svg" xmlns:xlink="http://www.w3.org/1999/xlink"><g id="_x39__x2C__Flu_x2C__protection_x2C__vaccine_x2C__virus"><g id="XMLID_15_"><path d="M160.83,87.88c23.94,0,43.34,19.4,43.34,43.33c0,11.97-4.85,22.81-12.7,30.64    c-7.84,7.84-18.68,12.69-30.64,12.69c-11.97,0-22.8-4.85-30.64-12.69c-7.77-7.78-12.61-18.49-12.69-30.34c0-0.1,0-0.2,0-0.3    c0-11.96,4.85-22.8,12.69-30.64C138.03,92.73,148.86,87.88,160.83,87.88z" id="XMLID_139_" style="fill:#CD2738;"/><path d="M184.29,370.47l-19.59,19.71c-3.26,3.25-7.53,4.88-11.8,4.88    s-8.54-1.63-11.79-4.88c-6.51-6.51-6.51-17.069,0-23.58l19.64-19.67L184.29,370.47z" id="XMLID_136_" style="fill:#19AB5C;"/><circle cx="432.5" cy="341.21" id="XMLID_133_" r="35" style="fill:#FFD400;"/><path d="M72.5,306.21c11.05,0,20,8.95,20,20c0,11.05-8.95,20-20,20s-20-8.95-20-20    C52.5,315.16,61.45,306.21,72.5,306.21z" id="XMLID_130_" style="fill:#FFD400;"/><path d="M449.59,107.54c6.52,6.51,6.52,17.07,0,23.58c-6.5,6.52-17.08,6.52-23.58,0    c-49.938-49.938,7.845,7.842-31.45-31.44c-6.51-6.51-6.51-17.07,0-23.59c6.472-6.472,17.048-6.542,23.59,0L449.59,107.54z" id="XMLID_127_" style="fill:#3F4751;"/><polygon id="XMLID_124_" points="418.96,124.07 360.08,182.95 345.93,168.81 404.82,109.93   " style="fill:#D0DCE7;"/><path d="M390.69,213.61c6.52,6.51,6.52,17.07,0,23.58c-6.451,6.472-17.059,6.541-23.58,0    c-7.078-7.078-25.022-25.022-30.64-30.64c0.105,0.105-3.658-3.657-47.97-47.97c-6.51-6.52-6.51-17.08,0-23.59    c6.451-6.451,17.017-6.562,23.58,0L390.69,213.61z" id="XMLID_121_" style="fill:#BCE4FF;"/><polygon id="XMLID_118_" points="322.33,192.41 241.02,273.729 212.73,245.44 212.69,245.4 294.01,164.09       " style="fill:#D0DCE7;"/><polygon id="XMLID_115_" points="364.76,234.84 283.44,316.16 255.16,287.87 336.47,206.55 363.18,233.26       " style="fill:#D0DCE7;"/><rect height="19.998" id="XMLID_112_" style="fill:#A0B5C5;" transform="matrix(0.7071 -0.7072 0.7072 0.7071 -85.2307 274.5328)" width="114.997" x="231.247" y="230.141"/><path d="M283.44,316.16L220.2,379.39c-7.45,7.46-19.53,7.46-26.99,0    c-15.446-15.446-28.329-28.328-43.76-43.76c-7.45-7.45-7.45-19.53,0-26.99l63.24-63.24    C212.856,245.566,283.287,316.007,283.44,316.16z" id="XMLID_109_" style="fill:#07CC66;"/><path d="M170.83,107.88c5.53,0,10,4.47,10,10c0,5.52-4.47,10-10,10c-5.52,0-10-4.48-10-10    C160.83,112.35,165.31,107.88,170.83,107.88z" id="XMLID_106_" style="fill:#FFD400;"/><path d="M150.83,141.21c3.69,0,6.67,2.98,6.67,6.67c0,3.68-2.98,6.66-6.67,6.66    c-3.68,0-6.66-2.98-6.66-6.66C144.17,144.19,147.15,141.21,150.83,141.21z" id="XMLID_103_" style="fill:#FFD400;"/><path d="M160.83,51.21c5.53,0,10,4.48,10,10s-4.47,10-10,10c-5.52,0-10-4.48-10-10    S155.31,51.21,160.83,51.21z" id="XMLID_100_" style="fill:#D94556;"/><path d="M118.41,173.64c3.9,3.9,3.9,10.23,0,14.14c-3.91,3.9-10.24,3.9-14.15,0    c-3.9-3.91-3.9-10.24,0-14.14C108.17,169.73,114.5,169.73,118.41,173.64z" id="XMLID_97_" style="fill:#D94556;"/><path d="M230.83,121.21c5.53,0,10,4.48,10,10c0,5.52-4.47,10-10,10c-5.52,0-10-4.48-10-10    C220.83,125.69,225.31,121.21,230.83,121.21z" id="XMLID_94_" style="fill:#D94556;"/><path d="M217.4,173.64c3.91,3.9,3.91,10.23,0,14.14c-3.9,3.9-10.23,3.9-14.14,0    c-3.91-3.91-3.91-10.24,0-14.14C207.17,169.73,213.5,169.73,217.4,173.64z" id="XMLID_91_" style="fill:#D94556;"/><path d="M160.83,191.21c5.53,0,10,4.48,10,10c0,5.52-4.47,10-10,10c-5.52,0-10-4.48-10-10    C150.83,195.69,155.31,191.21,160.83,191.21z" id="XMLID_88_" style="fill:#D94556;"/><path d="M236.49,63.73c6.17,6.17,6.17,16.16,0,22.33c-6.16,6.16-16.16,6.16-22.32,0    c-6.17-6.17-6.17-16.16,0-22.33C220.33,57.57,230.33,57.57,236.49,63.73z" id="XMLID_85_" style="fill:#D94556;"/><path d="M81.14,117.88c7.53,0,13.63,6.1,13.63,13.63c0,7.53-6.1,13.64-13.63,13.64    c-7.54,0-13.64-6.11-13.64-13.64C67.5,123.98,73.6,117.88,81.14,117.88z" id="XMLID_82_" style="fill:#D94556;"/><path d="M118.41,74.64c3.9,3.91,3.9,10.24,0,14.14c-3.91,3.91-10.24,3.91-14.15,0    c-3.9-3.9-3.9-10.23,0-14.14C108.17,70.74,114.5,70.74,118.41,74.64z" id="XMLID_79_" style="fill:#D94556;"/><circle cx="455" cy="218.71" id="XMLID_78_" r="7.5"/><circle cx="440" cy="448.71" id="XMLID_77_" r="7.5"/><circle cx="325" cy="73.71" id="XMLID_76_" r="7.5"/><circle cx="315" cy="398.71" id="XMLID_75_" r="7.5"/><circle cx="235" cy="453.71" id="XMLID_74_" r="7.5"/><circle cx="102.5" cy="248.71" id="XMLID_73_" r="7.5"/><path d="M378.9,247.07c-5.805,0-11.249-2.255-15.331-6.35l-2.345-2.344c-1.953-1.953-1.953-5.119,0-7.071    c1.953-1.952,5.118-1.952,7.071,0l2.35,2.35c2.197,2.205,5.127,3.416,8.254,3.416s6.057-1.211,8.249-3.41    c2.215-2.212,3.431-5.143,3.431-8.26c0-3.118-1.216-6.048-3.423-8.252l-78.613-78.623c-2.203-2.202-5.134-3.415-8.254-3.415    c-3.121,0-6.052,1.213-8.254,3.415c-4.551,4.551-4.549,11.962,0.002,16.522l3.927,3.927c1.953,1.952,1.953,5.118,0,7.071    c-1.952,1.953-5.119,1.954-7.071,0l-3.93-3.93c-8.448-8.461-8.447-22.214,0-30.662c4.091-4.091,9.534-6.344,15.326-6.344    c5.791,0,11.233,2.253,15.325,6.344l78.61,78.621c4.097,4.09,6.355,9.534,6.355,15.326c0,5.792-2.258,11.235-6.357,15.328    C390.149,244.815,384.705,247.07,378.9,247.07z" id="XMLID_72_"/><path d="M437.8,141.01c-5.798,0-11.242-2.258-15.331-6.359l-7.044-7.045c-1.953-1.953-1.953-5.119,0-7.071    c1.954-1.952,5.119-1.952,7.071,0l7.05,7.05c2.204,2.211,5.133,3.425,8.254,3.425s6.05-1.214,8.249-3.42    c2.215-2.212,3.431-5.143,3.431-8.26c0-3.117-1.216-6.047-3.423-8.251l-31.443-31.453c-2.202-2.202-5.133-3.415-8.254-3.415    c-3.127,0-6.062,1.213-8.264,3.415c-4.55,4.557-4.551,11.968,0,16.519l10.258,10.249c1.954,1.952,1.955,5.117,0.003,7.071    c-1.953,1.954-5.118,1.955-7.071,0.003l-10.26-10.25c-8.449-8.449-8.45-22.202-0.004-30.66c4.094-4.094,9.54-6.347,15.338-6.347    c5.792,0,11.234,2.253,15.326,6.344l31.441,31.451c4.096,4.09,6.354,9.533,6.354,15.325c0,5.791-2.258,11.235-6.357,15.329    C449.042,138.751,443.597,141.01,437.8,141.01z" id="XMLID_71_"/><path d="M152.9,400.06c-5.792,0-11.234-2.253-15.326-6.345c-8.45-8.449-8.45-22.199,0-30.65l19.638-19.668    c1.951-1.954,5.117-1.955,7.071-0.005c1.954,1.951,1.957,5.117,0.005,7.071l-19.64,19.67c-4.554,4.554-4.554,11.96-0.002,16.512    c2.202,2.202,5.134,3.415,8.254,3.415c3.12,0,6.057-1.215,8.27-3.421l19.573-19.693c1.947-1.959,5.113-1.968,7.071-0.021    c1.959,1.946,1.968,5.112,0.021,7.07l-19.59,19.71C164.13,397.809,158.685,400.06,152.9,400.06z" id="XMLID_70_"/><path d="M62.5,473.79c-1.28,0-2.559-0.488-3.536-1.465c-1.953-1.952-1.953-5.118,0-7.07l78.61-78.61    c1.953-1.953,5.118-1.953,7.071,0c1.953,1.952,1.953,5.118,0,7.07l-78.61,78.61C65.059,473.302,63.78,473.79,62.5,473.79z" id="XMLID_69_"/><path d="M206.709,389.984c-6.433,0-12.482-2.507-17.035-7.06l-43.76-43.76c-9.384-9.384-9.386-24.663-0.003-34.059    l144.563-144.552c1.953-1.952,5.119-1.951,7.071,0l28.32,28.32c1.953,1.953,1.953,5.119,0,7.071c-1.953,1.952-5.118,1.952-7.071,0    l-24.785-24.785L152.986,312.175c-5.487,5.495-5.488,14.432,0,19.92l43.76,43.76c2.664,2.663,6.202,4.13,9.963,4.13    c3.76,0,7.295-1.466,9.953-4.128L357.689,234.84l-24.754-24.754c-1.953-1.953-1.953-5.119,0-7.071    c1.953-1.952,5.118-1.952,7.071,0l28.29,28.291c1.952,1.953,1.952,5.118,0,7.071l-144.56,144.55    C219.19,387.477,213.143,389.984,206.709,389.984z" id="XMLID_68_"/><path d="M160.83,179.54c-12.911,0-25.048-5.027-34.176-14.154c-9.042-9.054-14.068-21.072-14.154-33.842v-0.334    c0-12.91,5.027-25.047,14.154-34.176c9.128-9.127,21.265-14.154,34.176-14.154c26.655,0,48.34,21.681,48.34,48.33    c0,12.927-5.032,25.066-14.168,34.18C185.877,174.513,173.74,179.54,160.83,179.54z M160.83,92.88    c-10.24,0-19.866,3.987-27.104,11.226c-7.239,7.239-11.226,16.865-11.226,27.104v0.3c0.068,10.093,4.056,19.626,11.228,26.807    c7.236,7.236,16.862,11.223,27.102,11.223c10.239,0,19.865-3.987,27.105-11.226c7.247-7.229,11.235-16.853,11.235-27.105    C199.17,110.075,181.971,92.88,160.83,92.88z" id="XMLID_65_"/><path d="M160.83,76.21c-8.271,0-15-6.729-15-15s6.729-15,15-15c8.271,0,15,6.729,15,15S169.101,76.21,160.83,76.21    z M160.83,56.21c-2.757,0-5,2.243-5,5c0,2.757,2.243,5,5,5c2.757,0,5-2.243,5-5C165.83,58.453,163.587,56.21,160.83,56.21z" id="XMLID_62_"/><path d="M160.83,216.21c-8.271,0-15-6.729-15-15c0-8.271,6.729-15,15-15c8.271,0,15,6.729,15,15    C175.83,209.481,169.101,216.21,160.83,216.21z M160.83,196.21c-2.757,0-5,2.243-5,5c0,2.757,2.243,5,5,5c2.757,0,5-2.243,5-5    C165.83,198.453,163.587,196.21,160.83,196.21z" id="XMLID_59_"/><path d="M160.83,196.21c-2.761,0-5-2.239-5-5v-16.67c0-2.761,2.239-5,5-5c2.761,0,5,2.239,5,5v16.67    C165.83,193.971,163.591,196.21,160.83,196.21z" id="XMLID_58_"/><path d="M160.83,92.88c-2.761,0-5-2.239-5-5V71.21c0-2.761,2.239-5,5-5c2.761,0,5,2.239,5,5v16.67    C165.83,90.641,163.591,92.88,160.83,92.88z" id="XMLID_57_"/><path d="M225.33,95.68c-5.553,0-10.772-2.161-14.695-6.084c-3.929-3.929-6.092-9.149-6.092-14.701    c0-5.551,2.164-10.772,6.092-14.701c3.924-3.924,9.143-6.084,14.696-6.084c5.553,0,10.772,2.161,14.696,6.084    c3.928,3.929,6.092,9.149,6.092,14.701c0,5.551-2.164,10.772-6.092,14.701C236.102,93.519,230.883,95.68,225.33,95.68z     M225.33,64.11c-2.882,0-5.59,1.121-7.624,3.156c-2.04,2.04-3.163,4.749-3.163,7.629c0,2.88,1.124,5.59,3.163,7.629    c2.035,2.035,4.743,3.155,7.624,3.155c2.882,0,5.59-1.121,7.625-3.155c2.039-2.04,3.163-4.749,3.163-7.629    c0-2.88-1.124-5.59-3.163-7.629C230.92,65.23,228.212,64.11,225.33,64.11z" id="XMLID_54_"/><path d="M111.335,195.705c-4.004,0-7.771-1.558-10.606-4.385c-5.847-5.862-5.845-15.375-0.004-21.215    c2.836-2.835,6.604-4.397,10.611-4.397c4.007,0,7.775,1.561,10.611,4.397c5.84,5.841,5.842,15.354,0.004,21.207    C119.106,194.147,115.339,195.705,111.335,195.705z M111.335,175.708c-1.336,0-2.593,0.521-3.54,1.468    c-1.946,1.946-1.944,5.119,0.004,7.073c0.938,0.936,2.197,1.456,3.535,1.456c1.338,0,2.597-0.52,3.544-1.465    c1.94-1.945,1.942-5.118-0.004-7.064C113.928,176.229,112.671,175.708,111.335,175.708z" id="XMLID_51_"/><path d="M118.41,178.64c-1.279,0-2.558-0.487-3.534-1.463c-1.953-1.952-1.955-5.118-0.003-7.071l11.78-11.79    c1.952-1.954,5.117-1.956,7.071-0.003c1.953,1.952,1.955,5.118,0.003,7.071l-11.78,11.79    C120.971,178.151,119.69,178.64,118.41,178.64z" id="XMLID_50_"/><path d="M195.57,109.66c-1.28,0-2.559-0.488-3.536-1.464c-1.953-1.953-1.953-5.119,0-7.071l18.6-18.6    c1.953-1.952,5.118-1.952,7.071,0c1.953,1.953,1.953,5.119,0,7.071l-18.6,18.6C198.129,109.172,196.85,109.66,195.57,109.66z" id="XMLID_49_"/><path d="M230.83,146.21c-8.271,0-15-6.729-15-15c0-8.271,6.729-15,15-15c8.271,0,15,6.729,15,15    C245.83,139.481,239.101,146.21,230.83,146.21z M230.83,126.21c-2.757,0-5,2.243-5,5c0,2.757,2.243,5,5,5c2.757,0,5-2.243,5-5    C235.83,128.453,233.587,126.21,230.83,126.21z" id="XMLID_46_"/><path d="M81.14,150.15c-10.278,0-18.64-8.362-18.64-18.64c0-10.272,8.362-18.63,18.64-18.63    c10.272,0,18.63,8.357,18.63,18.63C99.77,141.788,91.413,150.15,81.14,150.15z M81.14,122.88c-4.764,0-8.64,3.872-8.64,8.63    c0,4.764,3.876,8.64,8.64,8.64c4.758,0,8.63-3.876,8.63-8.64C89.77,126.751,85.898,122.88,81.14,122.88z" id="XMLID_43_"/><path d="M117.5,136.51H94.77c-2.761,0-5-2.239-5-5s2.239-5,5-5h22.73c2.761,0,5,2.239,5,5    S120.261,136.51,117.5,136.51z" id="XMLID_42_"/><path d="M220.83,136.21h-16.66c-2.761,0-5-2.239-5-5s2.239-5,5-5h16.66c2.761,0,5,2.239,5,5    S223.591,136.21,220.83,136.21z" id="XMLID_41_"/><path d="M111.335,96.712c-4.007,0-7.775-1.562-10.611-4.397c-5.84-5.841-5.842-15.354-0.004-21.207    c2.844-2.836,6.611-4.394,10.615-4.394s7.771,1.558,10.606,4.385c5.847,5.862,5.845,15.374,0.004,21.215    C119.11,95.151,115.342,96.712,111.335,96.712z M111.335,76.715c-1.338,0-2.597,0.521-3.544,1.465    c-1.94,1.945-1.942,5.118,0.004,7.064c0.947,0.947,2.204,1.468,3.54,1.468c1.336,0,2.593-0.521,3.539-1.468    c1.946-1.946,1.944-5.119-0.004-7.073C113.932,77.235,112.673,76.715,111.335,76.715z" id="XMLID_38_"/><path d="M210.333,195.705c-4.003,0-7.77-1.558-10.605-4.385c-2.842-2.842-4.403-6.613-4.401-10.623    c0.002-4.005,1.565-7.768,4.401-10.597c2.831-2.831,6.599-4.393,10.605-4.393c4.009,0,7.775,1.563,10.606,4.402    c2.827,2.819,4.39,6.583,4.393,10.587c0.003,4.01-1.559,7.781-4.397,10.619C218.105,194.146,214.34,195.705,210.333,195.705z     M210.333,175.708c-1.335,0-2.591,0.521-3.538,1.468c-0.947,0.945-1.467,2.196-1.468,3.527c-0.001,1.336,0.52,2.594,1.468,3.541    c0.943,0.94,2.201,1.461,3.538,1.461c1.335,0,2.589-0.518,3.531-1.46c0.948-0.948,1.469-2.206,1.468-3.541    c-0.001-1.331-0.521-2.583-1.463-3.523C212.919,176.227,211.666,175.708,210.333,175.708z" id="XMLID_35_"/><path d="M203.26,178.64c-1.28,0-2.559-0.488-3.536-1.464l-11.79-11.79c-1.953-1.953-1.953-5.119,0-7.071    c1.954-1.952,5.119-1.951,7.071,0l11.789,11.79c1.953,1.953,1.953,5.119,0,7.071C205.819,178.152,204.539,178.64,203.26,178.64z" id="XMLID_34_"/><path d="M130.19,105.57c-1.28,0-2.56-0.489-3.537-1.466l-11.78-11.79c-1.952-1.954-1.95-5.12,0.003-7.071    c1.954-1.952,5.119-1.95,7.071,0.003l11.78,11.79c1.952,1.954,1.95,5.12-0.003,7.071    C132.748,105.082,131.469,105.57,130.19,105.57z" id="XMLID_33_"/><path d="M170.83,132.88c-8.271,0-15-6.729-15-15s6.729-15,15-15c8.271,0,15,6.729,15,15    S179.101,132.88,170.83,132.88z M170.83,112.88c-2.757,0-5,2.243-5,5c0,2.757,2.243,5,5,5c2.757,0,5-2.243,5-5    C175.83,115.123,173.587,112.88,170.83,112.88z" id="XMLID_30_"/><path d="M150.83,159.54c-6.429,0-11.66-5.231-11.66-11.66c0-6.435,5.231-11.67,11.66-11.67    c6.435,0,11.67,5.235,11.67,11.67C162.5,154.309,157.265,159.54,150.83,159.54z M150.83,146.21c-0.915,0-1.66,0.749-1.66,1.67    c0,0.915,0.745,1.66,1.66,1.66c0.921,0,1.67-0.745,1.67-1.66C152.5,146.959,151.751,146.21,150.83,146.21z" id="XMLID_27_"/><path d="M255.16,292.87c-1.28,0-2.559-0.488-3.535-1.464c-1.953-1.953-1.953-5.119-0.001-7.071l77.775-77.785    l-7.069-7.069l-77.775,77.783c-1.952,1.953-5.119,1.952-7.071,0.001c-1.953-1.953-1.953-5.119,0-7.071l81.31-81.319    c0.938-0.938,2.21-1.465,3.536-1.465c1.326,0,2.598,0.527,3.536,1.464l14.14,14.14c1.953,1.953,1.953,5.118,0,7.071l-81.31,81.32    C257.72,292.382,256.44,292.87,255.16,292.87z" id="XMLID_26_"/><path d="M360.08,187.95c-1.279,0-2.558-0.488-3.534-1.463l-14.15-14.14c-0.939-0.938-1.466-2.21-1.466-3.536    c0-1.326,0.527-2.599,1.465-3.536l58.89-58.88c1.953-1.952,5.119-1.951,7.071,0l14.14,14.14c0.938,0.938,1.464,2.21,1.464,3.536    c0,1.326-0.527,2.598-1.464,3.536l-58.88,58.88C362.64,187.462,361.359,187.95,360.08,187.95z M353.003,168.809l7.076,7.071    l51.81-51.811l-7.069-7.069L353.003,168.809z" id="XMLID_23_"/><path d="M283.44,321.16c-1.28,0-2.56-0.488-3.536-1.465l-70.71-70.72c-1.953-1.953-1.953-5.119,0-7.071    c1.953-1.952,5.118-1.952,7.071,0l70.711,70.721c1.952,1.953,1.952,5.119-0.001,7.071    C285.999,320.672,284.719,321.16,283.44,321.16z" id="XMLID_22_"/><path d="M432.5,381.21c-22.056,0-40-17.944-40-40c0-22.056,17.944-40,40-40s40,17.944,40,40    C472.5,363.266,454.556,381.21,432.5,381.21z M432.5,311.21c-16.542,0-30,13.458-30,30c0,16.542,13.458,30,30,30s30-13.458,30-30    C462.5,324.668,449.042,311.21,432.5,311.21z" id="XMLID_19_"/><path d="M72.5,351.21c-13.785,0-25-11.215-25-25c0-13.785,11.215-25,25-25s25,11.215,25,25    C97.5,339.995,86.285,351.21,72.5,351.21z M72.5,311.21c-8.271,0-15,6.728-15,15c0,8.271,6.729,15,15,15s15-6.729,15-15    C87.5,317.938,80.771,311.21,72.5,311.21z" id="XMLID_16_"/></g></g><g id="Layer_1"/></svg>