<?xml version="1.0" encoding="UTF-8" standalone="no"?>
<!DOCTYPE svg PUBLIC "-//W3C//DTD SVG 1.1//EN"
"http://www.w3.org/Graphics/SVG/1.1/DTD/svg11.dtd">
<svg viewBox="0 0 935 1210" version="1.1" xmlns="http://www.w3.org/2000/svg" xmlns:xlink="http://www.w3.org/1999/xlink">
<defs>
<style type="text/css"><![CDATA[
.g0_1{
fill: none;
stroke: #000000;
stroke-width: 1.1458334;
stroke-linecap: butt;
stroke-linejoin: round;
}
.g1_1{
fill: none;
stroke: #000000;
stroke-width: 0.6111111;
stroke-linecap: butt;
stroke-linejoin: round;
}
.g2_1{
fill: none;
stroke: #000000;
stroke-width: 0.7638889;
stroke-linecap: butt;
stroke-linejoin: round;
}
.g3_1{
fill: none;
stroke: #000000;
stroke-width: 1.1458334;
stroke-linecap: butt;
stroke-linejoin: miter;
stroke-miterlimit: 3;
}
.g4_1{
fill: none;
stroke: #000000;
stroke-width: 2.2916667;
stroke-linecap: butt;
stroke-linejoin: miter;
stroke-miterlimit: 3;
}
.g5_1{
fill: #FFFFFF;
}
.g6_1{
fill: none;
stroke: #000000;
stroke-width: 1.5277778;
stroke-linecap: butt;
stroke-linejoin: miter;
stroke-miterlimit: 3;
}
.g7_1{
fill: #A6A6A6;
}
.g8_1{
fill: none;
stroke: #A6A6A6;
stroke-width: 1.5277778;
stroke-linecap: butt;
stroke-linejoin: miter;
stroke-miterlimit: 3;
}
.g9_1{
fill: none;
stroke: #A6A6A6;
stroke-width: 1.1458334;
stroke-linecap: butt;
stroke-linejoin: miter;
stroke-miterlimit: 3;
}
]]></style>
</defs>
<path d="M87.5,54.7H765" class="g0_1" />
<path d="M88.7,56.1H763.2" class="g1_1" />
<path d="M590.7,82.2H765M241.8,100.8H765M87.5,137.2H242.9m-1.1,0H763.2" class="g0_1" />
<path d="M241.8,138.6H765" class="g1_1" />
<path d="M89.2,55.8v81.9" class="g0_1" />
<path d="M87.8,54.1v83.6" class="g1_1" />
<path d="M242.3,54.1V139m349,-84.9V139m173,-84.9V139" class="g0_1" />
<path d="M762.9,55.8v81.9" class="g1_1" />
<image preserveAspectRatio="none" x="85" y="65" width="161" height="60" xlink:href="img/1.png" />
<path d="M129.6,264.7H804.8M129.6,279.5H804.8M129.6,294.3H804.8M129.6,309.1H804.8M129.6,324H804.8M129.6,338.8H804.8M130,264.3v74.9M298.5,264.3v74.9M467.2,279.1v60.1M635.7,279.1v60.1M804.4,264.3v74.9" class="g2_1" />
<path d="M200.5,861.1l317.4,1.1M210.8,931L440,928.7M563.8,861.1l140.9,1.1" class="g3_1" />
<path d="M132.4,697.2L805,698.3" class="g4_1" />
<path d="M566,929.8L707,931" class="g3_1" />
<path fill-rule="evenodd" d="M784.3,828.8h-43V703.9h85.9V828.8H784.3Z" class="g5_1" />
<path d="M784.3,828.8h-43V703.9h85.9V828.8H784.3Z" class="g6_1" />
<path fill-rule="evenodd" d="M784.7,961.3h-43V836.4h86V961.3h-43Z" class="g5_1" />
<path d="M784.7,961.3h-43V836.4h86V961.3h-43Z" class="g6_1" />
<path fill-rule="evenodd" d="M727,823.2H712.6V707.4h28.7V823.2H727Z" class="g5_1" />
<path fill-rule="evenodd" d="M727.5,956.7H713.1V841h28.6V956.7H727.5Z" class="g5_1" />
<path fill-rule="evenodd" d="M740.2,479.4V479l.1,-.1v-.2l.1,-.2v-.3l.1,-.2l.1,-.1l.1,-.2v-.2l.2,-.1l.1,-.1l.1,-.2l.1,-.1l.2,-.1l.1,-.2h.2v-.2l.3,-.1h.1l.2,-.1l.1,-.1l.2,-.1h.5l.2,-.1h19.1l.1,.1h.5l.2,.1l.2,.1l.1,.1h.2l.2,.1l.1,.2h.1l.2,.2l.1,.1l.1,.1l.2,.2v.1l.2,.1l.1,.2v.2l.1,.1l.1,.2l.1,.1v.6l.1,.1v.4l.1,13.8v.3l-.1,.2v.2l-.1,.2v.3l-.1,.1l-.1,.2l-.1,.1v.3l-.2,.1l-.1,.1l-.1,.2l-.1,.1l-.2,.1l-.1,.1l-.2,.1v.2h-.2l-.2,.1l-.2,.1l-.1,.1l-.2,.1h-.5l-.2,.1h-.3l-18.5,.1h-.3l-.2,-.1H743l-.3,-.1h-.3l-.1,-.1l-.2,-.1l-.1,-.1l-.3,-.1V496l-.2,-.1l-.1,-.1l-.2,-.1l-.1,-.2l-.1,-.1l-.1,-.2h-.2V495l-.1,-.2l-.1,-.2l-.1,-.1v-.3l-.1,-.3v-.1l-.1,-.2V479.4Z" class="g5_1" />
<path d="M740.2,479.4v0V479l.1,-.1v-.2l.1,-.2v-.3l.1,-.2l.1,-.1l.1,-.2v-.2l.2,-.1l.1,-.1l.1,-.2l.1,-.1l.2,-.1l.1,-.2h.2v-.2l.3,-.1h.1l.2,-.1l.1,-.1l.2,-.1h.5l.2,-.1h19.1l.1,.1h.5l.2,.1l.2,.1l.1,.1h.2l.2,.1l.1,.2h.1l.2,.2l.1,.1l.1,.1l.2,.2v.1l.2,.1l.1,.2v.2l.1,.1l.1,.2l.1,.1v.6l.1,.1v.4l.1,13.8v.3l-.1,.2v.2l-.1,.2v.3l-.1,.1l-.1,.2l-.1,.1v.3l-.2,.1l-.1,.1l-.1,.2l-.1,.1l-.2,.1l-.1,.1l-.2,.1v.2h-.2l-.2,.1l-.2,.1l-.1,.1l-.2,.1h-.5l-.2,.1h-.3l-18.5,.1h-.3l-.2,-.1H743l-.3,-.1h-.3l-.1,-.1l-.2,-.1l-.1,-.1l-.3,-.1V496l-.2,-.1l-.1,-.1l-.2,-.1l-.1,-.2l-.1,-.1l-.1,-.2h-.2V495l-.1,-.2l-.1,-.2l-.1,-.1v-.3l-.1,-.3v-.1l-.1,-.2V479.4Z" class="g6_1" />
<path fill-rule="evenodd" d="M779.8,480.6v-.4l.1,-.2v-.5l.1,-.2l.1,-.1l.1,-.2v-.2l.1,-.1l.2,-.1v-.2l.2,-.1l.1,-.2l.1,-.1l.2,-.1l.1,-.1l.1,-.1l.2,-.1l.2,-.1l.1,-.1h.2l.1,-.1h.2l.2,-.1h.2l.1,-.1h19.1l.2,.1h.1l.3,.1h.1l.2,.1h.1l.2,.1l.2,.1l.2,.1v.1l.2,.1l.1,.1l.2,.1l.1,.2l.1,.1l.1,.2l.2,.1v.2l.1,.1l.1,.2l.1,.1v.3l.1,.3v.1l.1,.2v.4l.1,13.7v.4l-.1,.1v.2l-.1,.2v.2l-.1,.1v.2l-.1,.1l-.1,.2l-.1,.2l-.1,.1l-.1,.2l-.2,.1v.2h-.2l-.1,.2l-.2,.1l-.1,.1l-.1,.1l-.2,.1H803l-.2,.1l-.1,.1h-.2l-.2,.1h-.7l-18.4,.1h-.4l-.1,-.1h-.6l-.1,-.1l-.2,-.1l-.1,-.1h-.2l-.2,-.1l-.1,-.2h-.1l-.2,-.2l-.1,-.1l-.1,-.1l-.2,-.2v-.1l-.2,-.1l-.1,-.2v-.2l-.1,-.1l-.1,-.2l-.1,-.1v-.6l-.1,-.1V480.6Z" class="g5_1" />
<path d="M779.8,480.6v0v-.4l.1,-.2v-.5l.1,-.2l.1,-.1l.1,-.2v-.2l.1,-.1l.2,-.1v-.2l.2,-.1l.1,-.2l.1,-.1l.2,-.1l.1,-.1l.1,-.1l.2,-.1l.2,-.1l.1,-.1h.2l.1,-.1h.2l.2,-.1h.2l.1,-.1h19.1l.2,.1h.1l.3,.1h.1l.2,.1h.1l.2,.1l.2,.1l.2,.1v.1l.2,.1l.1,.1l.2,.1l.1,.2l.1,.1l.1,.2l.2,.1v.2l.1,.1l.1,.2l.1,.1v.3l.1,.3v.1l.1,.2v.4l.1,13.7v.4l-.1,.1v.2l-.1,.2v.2l-.1,.1v.2l-.1,.1l-.1,.2l-.1,.2l-.1,.1l-.1,.2l-.2,.1v.2h-.2l-.1,.2l-.2,.1l-.1,.1l-.1,.1l-.2,.1H803l-.2,.1l-.1,.1h-.2l-.2,.1h-.7l-18.4,.1h-.4l-.1,-.1h-.6l-.1,-.1l-.2,-.1l-.1,-.1h-.2l-.2,-.1l-.1,-.2h-.1l-.2,-.2l-.1,-.1l-.1,-.1l-.2,-.2v-.1l-.2,-.1l-.1,-.2v-.2l-.1,-.1l-.1,-.2l-.1,-.1v-.6l-.1,-.1V480.6Z" class="g6_1" />
<path fill-rule="evenodd" d="M741.4,514.9v-.6l.1,-.3v-.1l.1,-.2l.1,-.1v-.2l.1,-.2l.1,-.2h.1l.1,-.2l.2,-.2v-.1l.2,-.1l.2,-.1l.1,-.1l.1,-.2h.2l.2,-.1l.1,-.1l.2,-.1h.3l.2,-.1h.2l.1,-.1h19.1l.2,.1h.1l.2,.1h.3l.2,.1l.2,.1l.2,.1h.1l.1,.2l.2,.1l.1,.1l.2,.1v.1l.2,.2l.1,.2h.1l.1,.3l.1,.1l.1,.2v.1l.1,.2v.1l.1,.3v.1l.1,.2v14.8l-.1,.2v.2l-.1,.1l-.1,.2v.1l-.1,.2l-.1,.2l-.1,.1l-.1,.1l-.2,.2l-.1,.1l-.1,.1l-.2,.2h-.1l-.1,.2l-.1,.1h-.3l-.1,.1l-.2,.1l-.1,.1h-.6l-.1,.1h-.4l-18.4,.1h-.4l-.1,-.1h-.2l-.2,-.1h-.3l-.2,-.1l-.1,-.1l-.2,-.1h-.2l-.1,-.2l-.1,-.1l-.2,-.1l-.2,-.1v-.1l-.2,-.2l-.1,-.2h-.1l-.1,-.2l-.1,-.2v-.2l-.1,-.1l-.1,-.2v-.1l-.1,-.2V514.9Z" class="g5_1" />
<path d="M741.4,514.9v0v-.6l.1,-.3v-.1l.1,-.2l.1,-.1v-.2l.1,-.2l.1,-.2h.1l.1,-.2l.2,-.2v-.1l.2,-.1l.2,-.1l.1,-.1l.1,-.2h.2l.2,-.1l.1,-.1l.2,-.1h.3l.2,-.1h.2l.1,-.1h19.1l.2,.1h.1l.2,.1h.3l.2,.1l.2,.1l.2,.1h.1l.1,.2l.2,.1l.1,.1l.2,.1v.1l.2,.2l.1,.2h.1l.1,.3l.1,.1l.1,.2v.1l.1,.2v.1l.1,.3v.1l.1,.2v14.8l-.1,.2v.2l-.1,.1l-.1,.2v.1l-.1,.2l-.1,.2l-.1,.1l-.1,.1l-.2,.2l-.1,.1l-.1,.1l-.2,.2h-.1l-.1,.2l-.1,.1h-.3l-.1,.1l-.2,.1l-.1,.1h-.6l-.1,.1h-.4l-18.4,.1h-.4l-.1,-.1h-.2l-.2,-.1h-.3l-.2,-.1l-.1,-.1l-.2,-.1h-.2l-.1,-.2l-.1,-.1l-.2,-.1l-.2,-.1v-.1l-.2,-.2l-.1,-.2h-.1l-.1,-.2l-.1,-.2v-.2l-.1,-.1l-.1,-.2v-.1l-.1,-.2V514.9Z" class="g6_1" />
<path fill-rule="evenodd" d="M777.6,514.9v-.6l.1,-.3v-.1l.1,-.2l.1,-.1v-.2l.1,-.2l.1,-.2h.1l.1,-.2l.2,-.2l.1,-.1l.1,-.1l.2,-.1l.1,-.1l.1,-.2h.2l.2,-.1l.1,-.1l.2,-.1h.3l.2,-.1h.2l.1,-.1h19.1l.2,.1h.1l.2,.1h.4l.1,.1l.2,.1l.2,.1h.1l.1,.2l.2,.1l.1,.1l.2,.1l.1,.1l.1,.2l.1,.2h.1l.1,.3l.1,.1l.1,.2v.1l.1,.2v.1l.1,.3v.1l.1,.2v14.8l-.1,.2v.2l-.1,.1l-.1,.2v.1l-.1,.2l-.1,.2l-.1,.1l-.1,.1l-.2,.2v.1l-.2,.1l-.2,.2h-.1l-.1,.2l-.1,.1h-.3l-.1,.1l-.2,.1l-.1,.1h-.6l-.1,.1h-.4l-18.4,.1h-.4l-.1,-.1h-.2l-.2,-.1h-.3l-.2,-.1l-.1,-.1l-.2,-.1h-.2l-.1,-.2l-.1,-.1l-.2,-.1l-.1,-.1l-.1,-.1l-.2,-.2l-.1,-.2h-.1l-.1,-.2l-.1,-.2v-.2l-.1,-.1l-.1,-.2v-.1l-.1,-.2V514.9Z" class="g5_1" />
<path d="M777.6,514.9v0v-.6l.1,-.3v-.1l.1,-.2l.1,-.1v-.2l.1,-.2l.1,-.2h.1l.1,-.2l.2,-.2l.1,-.1l.1,-.1l.2,-.1l.1,-.1l.1,-.2h.2l.2,-.1l.1,-.1l.2,-.1h.3l.2,-.1h.2l.1,-.1h19.1l.2,.1h.1l.2,.1h.4l.1,.1l.2,.1l.2,.1h.1l.1,.2l.2,.1l.1,.1l.2,.1l.1,.1l.1,.2l.1,.2h.1l.1,.3l.1,.1l.1,.2v.1l.1,.2v.1l.1,.3v.1l.1,.2v14.8l-.1,.2v.2l-.1,.1l-.1,.2v.1l-.1,.2l-.1,.2l-.1,.1l-.1,.1l-.2,.2v.1l-.2,.1l-.2,.2h-.1l-.1,.2l-.1,.1h-.3l-.1,.1l-.2,.1l-.1,.1h-.6l-.1,.1h-.4l-18.4,.1h-.4l-.1,-.1h-.2l-.2,-.1h-.3l-.2,-.1l-.1,-.1l-.2,-.1h-.2l-.1,-.2l-.1,-.1l-.2,-.1l-.1,-.1l-.1,-.1l-.2,-.2l-.1,-.2h-.1l-.1,-.2l-.1,-.2v-.2l-.1,-.1l-.1,-.2v-.1l-.1,-.2V514.9Z" class="g6_1" />
<path fill-rule="evenodd" d="M741.7,559.6v-.7l.1,-.2v-.1l.1,-.2l.1,-.2v-.1l.1,-.2l.1,-.2l.1,-.1l.1,-.1l.2,-.2l.1,-.1l.1,-.1l.2,-.1l.1,-.1l.1,-.2l.2,-.1h.2l.1,-.1l.2,-.1l.1,-.1h.6l.1,-.1h19.1l.2,.1h.5l.2,.1l.1,.1l.2,.1h.2l.1,.1l.1,.2l.2,.1l.1,.1l.2,.1l.1,.1l.1,.2l.1,.1l.1,.1l.1,.2l.1,.2l.1,.1v.2l.1,.2v.1l.1,.2v.2l.1,.1v14.9l-.1,.2v.1l-.1,.2l-.1,.2v.1l-.1,.2l-.1,.2l-.1,.1l-.1,.1l-.2,.2v.1l-.2,.1l-.2,.1l-.1,.1l-.1,.2l-.1,.1H765l-.1,.1l-.2,.1l-.1,.1H764l-.1,.1h-.4l-18.4,.1h-.4l-.1,-.1h-.2l-.2,-.1h-.3l-.2,-.1l-.1,-.1l-.2,-.1h-.2l-.1,-.2l-.1,-.1l-.2,-.1l-.1,-.1l-.1,-.2l-.2,-.1l-.1,-.2h-.1l-.1,-.2L742,575v-.2l-.1,-.1l-.1,-.2v-.1l-.1,-.3V559.6Z" class="g5_1" />
<path d="M741.7,559.6v0v-.7l.1,-.2v-.1l.1,-.2l.1,-.2v-.1l.1,-.2l.1,-.2l.1,-.1l.1,-.1l.2,-.2l.1,-.1l.1,-.1l.2,-.1l.1,-.1l.1,-.2l.2,-.1h.2l.1,-.1l.2,-.1l.1,-.1h.6l.1,-.1h19.1l.2,.1h.5l.2,.1l.1,.1l.2,.1h.2l.1,.1l.1,.2l.2,.1l.1,.1l.2,.1l.1,.1l.1,.2l.1,.1l.1,.1l.1,.2l.1,.2l.1,.1v.2l.1,.2v.1l.1,.2v.2l.1,.1v14.9l-.1,.2v.1l-.1,.2l-.1,.2v.1l-.1,.2l-.1,.2l-.1,.1l-.1,.1l-.2,.2v.1l-.2,.1l-.2,.1l-.1,.1l-.1,.2l-.1,.1H765l-.1,.1l-.2,.1l-.1,.1H764l-.1,.1h-.4l-18.4,.1h-.4l-.1,-.1h-.2l-.2,-.1h-.3l-.2,-.1l-.1,-.1l-.2,-.1h-.2l-.1,-.2l-.1,-.1l-.2,-.1l-.1,-.1l-.1,-.2l-.2,-.1l-.1,-.2h-.1l-.1,-.2L742,575v-.2l-.1,-.1l-.1,-.2v-.1l-.1,-.3V559.6Z" class="g6_1" />
<path fill-rule="evenodd" d="M778,559.6v-.4l.1,-.1v-.2l.1,-.2v-.3l.1,-.2l.1,-.1l.1,-.2l.1,-.2l.1,-.1l.1,-.1l.1,-.2l.1,-.1l.2,-.1l.1,-.1l.2,-.1v-.2l.3,-.1h.1l.2,-.1l.1,-.1l.2,-.1h.5l.2,-.1h19.1l.1,.1h.6l.1,.1l.2,.1l.1,.1h.2l.2,.1l.1,.2l.1,.1l.2,.1l.1,.1l.1,.1l.2,.2v.1l.2,.1l.1,.2v.2l.1,.1l.1,.2l.1,.2v.1l.1,.2v.7l.1,13.8v.4l-.1,.1v.5l-.1,.2l-.1,.2l-.1,.1l-.1,.2v.2l-.2,.1l-.1,.1l-.1,.2l-.1,.1l-.1,.1l-.2,.1l-.1,.1l-.1,.2l-.2,.1h-.2l-.2,.1l-.1,.1l-.2,.1h-.5l-.2,.1h-.3l-18.4,.1h-.4l-.2,-.1h-.1l-.3,-.1h-.3l-.1,-.1l-.2,-.1l-.1,-.1h-.3v-.2l-.2,-.1l-.1,-.1l-.2,-.1l-.1,-.2l-.1,-.1l-.1,-.2h-.1l-.1,-.2l-.1,-.2l-.1,-.2l-.1,-.1v-.3l-.1,-.3V574l-.1,-.2V559.6Z" class="g5_1" />
<path d="M778,559.6v0v-.4l.1,-.1v-.2l.1,-.2v-.3l.1,-.2l.1,-.1l.1,-.2l.1,-.2l.1,-.1l.1,-.1l.1,-.2l.1,-.1l.2,-.1l.1,-.1l.2,-.1v-.2l.3,-.1h.1l.2,-.1l.1,-.1l.2,-.1h.5l.2,-.1h19.1l.1,.1h.6l.1,.1l.2,.1l.1,.1h.2l.2,.1l.1,.2l.1,.1l.2,.1l.1,.1l.1,.1l.2,.2v.1l.2,.1l.1,.2v.2l.1,.1l.1,.2l.1,.2v.1l.1,.2v.7l.1,13.8v.4l-.1,.1v.5l-.1,.2l-.1,.2l-.1,.1l-.1,.2v.2l-.2,.1l-.1,.1l-.1,.2l-.1,.1l-.1,.1l-.2,.1l-.1,.1l-.1,.2l-.2,.1h-.2l-.2,.1l-.1,.1l-.2,.1h-.5l-.2,.1h-.3l-18.4,.1h-.4l-.2,-.1h-.1l-.3,-.1h-.3l-.1,-.1l-.2,-.1l-.1,-.1h-.3v-.2l-.2,-.1l-.1,-.1l-.2,-.1l-.1,-.2l-.1,-.1l-.1,-.2h-.1l-.1,-.2l-.1,-.2l-.1,-.2l-.1,-.1v-.3l-.1,-.3V574l-.1,-.2V559.6Z" class="g6_1" />
<path fill-rule="evenodd" d="M742.3,603.2v-.4l.1,-.2v-.1l.1,-.2v-.2l.1,-.2l.1,-.1v-.2l.1,-.2l.1,-.1l.1,-.1l.1,-.2l.2,-.1v-.2l.2,-.1l.1,-.1l.2,-.1l.1,-.1l.2,-.1l.2,-.1l.1,-.1h.2l.1,-.1h.2l.2,-.1h.1l.2,-.1h19.1l.2,.1h.1l.2,.1h.2l.1,.1h.2l.1,.1l.3,.1l.1,.1l.1,.1l.2,.1l.1,.1l.2,.1v.2l.2,.1l.1,.2l.1,.1l.1,.2l.1,.1l.1,.2v.1l.1,.2v.2l.1,.2v.1l.1,.2v14.8l-.1,.2v.2l-.1,.1l-.1,.2v.1l-.1,.2l-.1,.2l-.2,.1v.2l-.2,.1l-.1,.2h-.1l-.2,.2l-.1,.1l-.1,.1l-.1,.1l-.3,.1h-.1l-.2,.1l-.1,.1h-.2l-.2,.1h-.2l-.1,.1H745.1l-.2,-.1h-.2l-.1,-.1l-.2,-.1l-.1,-.1h-.2l-.2,-.1l-.1,-.2h-.2l-.1,-.2l-.2,-.1v-.1l-.2,-.2L743,619l-.1,-.1l-.1,-.1l-.1,-.3v-.1l-.1,-.2l-.1,-.1v-.2l-.1,-.2v-.2l-.1,-.1V603.2Z" class="g5_1" />
<path d="M742.3,603.2v0v-.4l.1,-.2v-.1l.1,-.2v-.2l.1,-.2l.1,-.1v-.2l.1,-.2l.1,-.1l.1,-.1l.1,-.2l.2,-.1v-.2l.2,-.1l.1,-.1l.2,-.1l.1,-.1l.2,-.1l.2,-.1l.1,-.1h.2l.1,-.1h.2l.2,-.1h.1l.2,-.1h19.1l.2,.1h.1l.2,.1h.2l.1,.1h.2l.1,.1l.3,.1l.1,.1l.1,.1l.2,.1l.1,.1l.2,.1v.2l.2,.1l.1,.2l.1,.1l.1,.2l.1,.1l.1,.2v.1l.1,.2v.2l.1,.2v.1l.1,.2v14.8l-.1,.2v.2l-.1,.1l-.1,.2v.1l-.1,.2l-.1,.2l-.2,.1v.2l-.2,.1l-.1,.2h-.1l-.2,.2l-.1,.1l-.1,.1l-.1,.1l-.3,.1h-.1l-.2,.1l-.1,.1h-.2l-.2,.1h-.2l-.1,.1H745.1l-.2,-.1h-.2l-.1,-.1l-.2,-.1l-.1,-.1h-.2l-.2,-.1l-.1,-.2h-.2l-.1,-.2l-.2,-.1v-.1l-.2,-.2L743,619l-.1,-.1l-.1,-.1l-.1,-.3v-.1l-.1,-.2l-.1,-.1v-.2l-.1,-.2v-.2l-.1,-.1V603.2Z" class="g6_1" />
<path fill-rule="evenodd" d="M778.7,603.2v-.4l.1,-.2v-.1l.1,-.2v-.4l.1,-.1l.1,-.2l.1,-.2v-.1l.2,-.1l.1,-.2l.1,-.1l.1,-.2l.2,-.1l.1,-.1l.2,-.1v-.1l.3,-.1l.1,-.1l.2,-.1h.1l.2,-.1h.1l.3,-.1h.1l.2,-.1h19.1l.1,.1h.2l.2,.1h.1l.2,.1h.2l.1,.1l.2,.1l.2,.1l.1,.1l.1,.1l.2,.1l.1,.1l.1,.2l.2,.1v.2l.2,.1l.1,.2v.1l.1,.2l.1,.1l.1,.2v.5l.1,.2v.4l.1,13.7v.4l-.1,.2v.1l-.1,.2v.3l-.1,.2l-.1,.1l-.1,.2v.2l-.2,.1l-.1,.2l-.1,.1l-.1,.2h-.2l-.1,.2l-.2,.1v.1l-.2,.1l-.2,.1h-.2l-.1,.1l-.2,.1h-.1l-.3,.1h-.1l-.2,.1H781.5l-.3,-.1h-.1l-.2,-.1l-.1,-.1l-.2,-.1h-.1l-.3,-.1v-.2H780l-.1,-.2l-.2,-.1l-.1,-.1l-.1,-.2l-.1,-.1l-.2,-.1v-.1l-.1,-.3l-.1,-.1l-.1,-.2v-.3l-.1,-.2v-.2l-.1,-.1V603.2Z" class="g5_1" />
<path d="M778.7,603.2v0v-.4l.1,-.2v-.1l.1,-.2v-.4l.1,-.1l.1,-.2l.1,-.2v-.1l.2,-.1l.1,-.2l.1,-.1l.1,-.2l.2,-.1l.1,-.1l.2,-.1v-.1l.3,-.1l.1,-.1l.2,-.1h.1l.2,-.1h.1l.3,-.1h.1l.2,-.1h19.1l.1,.1h.2l.2,.1h.1l.2,.1h.2l.1,.1l.2,.1l.2,.1l.1,.1l.1,.1l.2,.1l.1,.1l.1,.2l.2,.1v.2l.2,.1l.1,.2v.1l.1,.2l.1,.1l.1,.2v.5l.1,.2v.4l.1,13.7v.4l-.1,.2v.1l-.1,.2v.3l-.1,.2l-.1,.1l-.1,.2v.2l-.2,.1l-.1,.2l-.1,.1l-.1,.2h-.2l-.1,.2l-.2,.1v.1l-.2,.1l-.2,.1h-.2l-.1,.1l-.2,.1h-.1l-.3,.1h-.1l-.2,.1H781.5l-.3,-.1h-.1l-.2,-.1l-.1,-.1l-.2,-.1h-.1l-.3,-.1v-.2H780l-.1,-.2l-.2,-.1l-.1,-.1l-.1,-.2l-.1,-.1l-.2,-.1v-.1l-.1,-.3l-.1,-.1l-.1,-.2v-.3l-.1,-.2v-.2l-.1,-.1V603.2Z" class="g6_1" />
<path fill-rule="evenodd" d="M742.3,636.4V636l.1,-.1v-.2l.1,-.2v-.2l.1,-.1l.1,-.2v-.1l.1,-.3l.1,-.1l.1,-.1l.1,-.1l.2,-.2V634l.2,-.1l.1,-.2l.2,-.1l.1,-.1l.2,-.1l.2,-.1h.1l.2,-.1l.1,-.1h.2l.2,-.1h19.7l.2,.1h.2l.1,.1l.2,.1h.1l.3,.1l.1,.1l.1,.1l.2,.1l.1,.2l.2,.1v.1l.2,.2l.1,.1l.1,.1l.1,.2l.1,.2l.1,.1v.2l.1,.1v.2l.1,.2v.2l.1,.1v14.8l-.1,.3v.1l-.1,.2l-.1,.1v.2l-.1,.1l-.1,.3h-.2v.2l-.2,.1l-.1,.2l-.1,.1l-.2,.1l-.1,.1l-.1,.1l-.1,.1l-.3,.1l-.1,.1l-.2,.1h-.3l-.2,.1h-.2l-.1,.1h-.4l-18.4,.1h-.4l-.2,-.1h-.1l-.2,-.1h-.2l-.1,-.1h-.2l-.1,-.1l-.2,-.1l-.2,-.1l-.1,-.1l-.2,-.1l-.1,-.2h-.2v-.2l-.2,-.1l-.1,-.2l-.1,-.1l-.1,-.1l-.1,-.2v-.2l-.1,-.2l-.1,-.1v-.2l-.1,-.2v-.1l-.1,-.2V636.4Z" class="g5_1" />
<path d="M742.3,636.4v0V636l.1,-.1v-.2l.1,-.2v-.2l.1,-.1l.1,-.2v-.1l.1,-.3l.1,-.1l.1,-.1l.1,-.1l.2,-.2V634l.2,-.1l.1,-.2l.2,-.1l.1,-.1l.2,-.1l.2,-.1h.1l.2,-.1l.1,-.1h.2l.2,-.1h19.7l.2,.1h.2l.1,.1l.2,.1h.1l.3,.1l.1,.1l.1,.1l.2,.1l.1,.2l.2,.1v.1l.2,.2l.1,.1l.1,.1l.1,.2l.1,.2l.1,.1v.2l.1,.1v.2l.1,.2v.2l.1,.1v14.8l-.1,.3v.1l-.1,.2l-.1,.1v.2l-.1,.1l-.1,.3h-.2v.2l-.2,.1l-.1,.2l-.1,.1l-.2,.1l-.1,.1l-.1,.1l-.1,.1l-.3,.1l-.1,.1l-.2,.1h-.3l-.2,.1h-.2l-.1,.1h-.4l-18.4,.1h-.4l-.2,-.1h-.1l-.2,-.1h-.2l-.1,-.1h-.2l-.1,-.1l-.2,-.1l-.2,-.1l-.1,-.1l-.2,-.1l-.1,-.2h-.2v-.2l-.2,-.1l-.1,-.2l-.1,-.1l-.1,-.1l-.1,-.2v-.2l-.1,-.2l-.1,-.1v-.2l-.1,-.2v-.1l-.1,-.2V636.4Z" class="g6_1" />
<path fill-rule="evenodd" d="M778.7,636.4V636l.1,-.1v-.2l.1,-.2v-.3l.1,-.2l.1,-.1l.1,-.3v-.1l.2,-.1l.1,-.1l.1,-.2l.1,-.1l.2,-.1l.1,-.2l.2,-.1v-.1l.3,-.1l.1,-.1h.2l.1,-.1l.2,-.1h.1l.3,-.1h19.7l.2,.1h.1l.2,.1l.2,.1h.1l.2,.1l.2,.1l.1,.1l.1,.1l.2,.2l.1,.1l.1,.1l.2,.2v.1l.2,.1l.1,.2v.2l.1,.1l.1,.2l.1,.1v.6l.1,.1v.4l.1,13.7v.4l-.1,.2v.1l-.1,.3v.3l-.1,.1l-.1,.2l-.1,.1v.3h-.2l-.1,.2l-.1,.1l-.1,.2l-.2,.1l-.1,.1l-.2,.1v.1l-.2,.1l-.2,.1l-.2,.1l-.1,.1h-.3l-.3,.1h-.1l-.2,.1h-.3l-18.5,.1h-.3l-.2,-.1h-.1l-.3,-.1h-.1l-.2,-.1h-.1l-.2,-.1l-.1,-.1l-.3,-.1V653l-.2,-.1l-.1,-.2h-.2l-.1,-.2l-.1,-.1l-.1,-.2l-.2,-.1V652l-.1,-.2l-.1,-.2l-.1,-.2v-.3l-.1,-.2v-.1l-.1,-.2V636.4Z" class="g5_1" />
<path d="M778.7,636.4v0V636l.1,-.1v-.2l.1,-.2v-.3l.1,-.2l.1,-.1l.1,-.3v-.1l.2,-.1l.1,-.1l.1,-.2l.1,-.1l.2,-.1l.1,-.2l.2,-.1v-.1l.3,-.1l.1,-.1h.2l.1,-.1l.2,-.1h.1l.3,-.1h19.7l.2,.1h.1l.2,.1l.2,.1h.1l.2,.1l.2,.1l.1,.1l.1,.1l.2,.2l.1,.1l.1,.1l.2,.2v.1l.2,.1l.1,.2v.2l.1,.1l.1,.2l.1,.1v.6l.1,.1v.4l.1,13.7v.4l-.1,.2v.1l-.1,.3v.3l-.1,.1l-.1,.2l-.1,.1v.3h-.2l-.1,.2l-.1,.1l-.1,.2l-.2,.1l-.1,.1l-.2,.1v.1l-.2,.1l-.2,.1l-.2,.1l-.1,.1h-.3l-.3,.1h-.1l-.2,.1h-.3l-18.5,.1h-.3l-.2,-.1h-.1l-.3,-.1h-.1l-.2,-.1h-.1l-.2,-.1l-.1,-.1l-.3,-.1V653l-.2,-.1l-.1,-.2h-.2l-.1,-.2l-.1,-.1l-.1,-.2l-.2,-.1V652l-.1,-.2l-.1,-.2l-.1,-.2v-.3l-.1,-.2v-.1l-.1,-.2V636.4Z" class="g6_1" />
<path fill-rule="evenodd" d="M341.4,383.5V383l.1,-.4v-.9l.2,-.4l.1,-.4l.1,-.4l.2,-.5l.2,-.3l.2,-.4l.3,-.4l.2,-.4l.3,-.3l.2,-.4l.3,-.3l.3,-.3l.4,-.2l.3,-.3l.4,-.3l.4,-.2l.4,-.2l.3,-.2l.5,-.2l.4,-.1l.4,-.1l.4,-.2l.5,-.1h239l.5,.1l.3,.2l.5,.1l.4,.1l.4,.2l.4,.2l.4,.2l.4,.2l.4,.3l.3,.3l.4,.2l.3,.3l.3,.3l.2,.4l.3,.3l.2,.4l.3,.4l.2,.4l.1,.3l.3,.5l.1,.4l.1,.4l.2,.4v.9l.1,.4v.5l.1,33.6v.4l-.1,.4v.5l-.1,.4l-.1,.4l-.1,.5l-.1,.4l-.3,.4l-.1,.4l-.3,.4l-.2,.4l-.2,.3l-.3,.4l-.3,.3l-.3,.3l-.3,.3l-.3,.3l-.3,.3l-.4,.2l-.4,.2l-.4,.3l-.4,.1l-.4,.3l-.4,.1l-.5,.1l-.4,.1l-.4,.1h-.5l-.4,.1h-.4l-236.5,.1h-.5l-.4,-.1h-.4l-.5,-.1l-.4,-.1l-.4,-.1l-.4,-.2l-.5,-.2l-.3,-.2l-.4,-.2l-.4,-.2l-.4,-.2l-.3,-.3l-.4,-.3l-.3,-.3l-.3,-.3l-.2,-.4l-.3,-.3l-.2,-.4l-.3,-.3l-.2,-.4l-.2,-.4l-.2,-.5l-.1,-.3l-.1,-.5l-.2,-.4V418l-.1,-.4V383.5Z" class="g7_1" />
<path d="M341.4,383.5v0V383l.1,-.4v-.9l.2,-.4l.1,-.4l.1,-.4l.2,-.5l.2,-.3l.2,-.4l.3,-.4l.2,-.4l.3,-.3l.2,-.4l.3,-.3l.3,-.3l.4,-.2l.3,-.3l.4,-.3l.4,-.2l.4,-.2l.3,-.2l.5,-.2l.4,-.1l.4,-.1l.4,-.2l.5,-.1h239l.5,.1l.3,.2l.5,.1l.4,.1l.4,.2l.4,.2l.4,.2l.4,.2l.4,.3l.3,.3l.4,.2l.3,.3l.3,.3l.2,.4l.3,.3l.2,.4l.3,.4l.2,.4l.1,.3l.3,.5l.1,.4l.1,.4l.2,.4v.9l.1,.4v.5l.1,33.6v.4l-.1,.4v.5l-.1,.4l-.1,.4l-.1,.5l-.1,.4l-.3,.4l-.1,.4l-.3,.4l-.2,.4l-.2,.3l-.3,.4l-.3,.3l-.3,.3l-.3,.3l-.3,.3l-.3,.3l-.4,.2l-.4,.2l-.4,.3l-.4,.1l-.4,.3l-.4,.1l-.5,.1l-.4,.1l-.4,.1h-.5l-.4,.1h-.4l-236.5,.1h-.5l-.4,-.1h-.4l-.5,-.1l-.4,-.1l-.4,-.1l-.4,-.2l-.5,-.2l-.3,-.2l-.4,-.2l-.4,-.2l-.4,-.2l-.3,-.3l-.4,-.3l-.3,-.3l-.3,-.3l-.2,-.4l-.3,-.3l-.2,-.4l-.3,-.3l-.2,-.4l-.2,-.4l-.2,-.5l-.1,-.3l-.1,-.5l-.2,-.4V418l-.1,-.4V383.5Z" class="g8_1" />
<path fill-rule="evenodd" d="M465.2,420.8H344.9V380.7H585.5v40.1H465.2Z" class="g7_1" />
<path d="M465.2,420.8H344.9V380.7H585.5v40.1H465.2Z" class="g9_1" />
</svg>
