<?xml version="1.0" encoding="UTF-8" standalone="no"?>
<!DOCTYPE svg PUBLIC "-//W3C//DTD SVG 1.1//EN"
"http://www.w3.org/Graphics/SVG/1.1/DTD/svg11.dtd">
<svg viewBox="0 0 935 1210" version="1.1" xmlns="http://www.w3.org/2000/svg" xmlns:xlink="http://www.w3.org/1999/xlink">
<defs>
<style type="text/css"><![CDATA[
.g0_1{
fill: #EFEFEF;
}
.g1_1{
}
.g2_1{
fill: #002060;
}
]]></style>
</defs>
<image preserveAspectRatio="none" x="60" y="68" width="181" height="71" xlink:href="img/1.png" />
<path fill-rule="evenodd" d="M56.8,59.4h1.1V54.1H56.8v5.3Z" class="g0_1" />
<path fill-rule="evenodd" d="M56.8,55.2h1.1V54.1H56.8v1.1Z" class="g0_1" />
<path fill-rule="evenodd" d="M57.9,55.2H249.5V54.1H57.9v1.1Z" class="g0_1" />
<path fill-rule="evenodd" d="M249.5,55.2h1.1V54.1h-1.1v1.1Z" class="g0_1" />
<path fill-rule="evenodd" d="M250.6,55.2H686.5V54.1H250.6v1.1Z" class="g0_1" />
<path fill-rule="evenodd" d="M686.6,55.2h1.1V54.1h-1.1v1.1Z" class="g0_1" />
<path fill-rule="evenodd" d="M687.7,55.2H901.5V54.1H687.7v1.1Z" class="g0_1" />
<path fill-rule="evenodd" d="M901.4,59.4h1.2V54.1h-1.2v5.3Z" class="g0_1" />
<path fill-rule="evenodd" d="M901.4,55.2h1.2V54.1h-1.2v1.1Z" class="g0_1" />
<path fill-rule="evenodd" d="M60.7,59.4h1.1V58.3H60.7v1.1Z" class="g1_1" />
<path fill-rule="evenodd" d="M60.7,59.4h1.1V58.3H60.7v1.1Z" class="g1_1" />
<path fill-rule="evenodd" d="M61.8,59.4h185V58.3H61.8v1.1Z" class="g1_1" />
<path fill-rule="evenodd" d="M246.8,59.4h1.1V58.3h-1.1v1.1Z" class="g1_1" />
<path fill-rule="evenodd" d="M246.8,59.4h1.1V58.3h-1.1v1.1Z" class="g1_1" />
<path fill-rule="evenodd" d="M60.7,89.6h1.1V59.4H60.7V89.6Z" class="g1_1" />
<path fill-rule="evenodd" d="M246.8,89.6h1.1V59.4h-1.1V89.6Z" class="g1_1" />
<path fill-rule="evenodd" d="M56.8,89.6h1.1V59.4H56.8V89.6Z" class="g0_1" />
<path fill-rule="evenodd" d="M251,59.4h1.1V58.3H251v1.1Z" class="g1_1" />
<path fill-rule="evenodd" d="M251,59.4h1.1V58.3H251v1.1Z" class="g1_1" />
<path fill-rule="evenodd" d="M252.1,59.4H683.8V58.3H252.1v1.1Z" class="g1_1" />
<path fill-rule="evenodd" d="M683.8,59.4h1.1V58.3h-1.1v1.1Z" class="g1_1" />
<path fill-rule="evenodd" d="M683.8,59.4h1.1V58.3h-1.1v1.1Z" class="g1_1" />
<path fill-rule="evenodd" d="M251,89.6h1.1V59.4H251V89.6Z" class="g1_1" />
<path fill-rule="evenodd" d="M683.8,89.6h1.1V59.4h-1.1V89.6Z" class="g1_1" />
<path fill-rule="evenodd" d="M688.2,59.4h1.1V58.3h-1.1v1.1Z" class="g1_1" />
<path fill-rule="evenodd" d="M688.2,59.4h1.1V58.3h-1.1v1.1Z" class="g1_1" />
<path fill-rule="evenodd" d="M689.3,59.4H897.8V58.3H689.3v1.1Z" class="g1_1" />
<path fill-rule="evenodd" d="M897.8,59.4h1.1V58.3h-1.1v1.1Z" class="g1_1" />
<path fill-rule="evenodd" d="M897.8,59.4h1.1V58.3h-1.1v1.1Z" class="g1_1" />
<path fill-rule="evenodd" d="M688.2,88h1.1V86.9h-1.1V88Z" class="g1_1" />
<path fill-rule="evenodd" d="M688.2,88h1.1V86.9h-1.1V88Z" class="g1_1" />
<path fill-rule="evenodd" d="M689.3,88H897.8V86.9H689.3V88Z" class="g1_1" />
<path fill-rule="evenodd" d="M897.8,88h1.1V86.9h-1.1V88Z" class="g1_1" />
<path fill-rule="evenodd" d="M897.8,88h1.1V86.9h-1.1V88Z" class="g1_1" />
<path fill-rule="evenodd" d="M688.2,86.9h1.1V59.4h-1.1V86.9Z" class="g1_1" />
<path fill-rule="evenodd" d="M897.8,86.9h1.1V59.4h-1.1V86.9Z" class="g1_1" />
<path fill-rule="evenodd" d="M901.4,89.6h1.2V59.4h-1.2V89.6Z" class="g0_1" />
<path fill-rule="evenodd" d="M56.8,92.4h1.1V89.6H56.8v2.8Z" class="g0_1" />
<path fill-rule="evenodd" d="M901.4,92.4h1.2V89.6h-1.2v2.8Z" class="g0_1" />
<path fill-rule="evenodd" d="M60.7,112.6h1.1v-23H60.7v23Z" class="g1_1" />
<path fill-rule="evenodd" d="M246.8,112.6h1.1v-23h-1.1v23Z" class="g1_1" />
<path fill-rule="evenodd" d="M56.8,112.6h1.1V92.4H56.8v20.2Z" class="g0_1" />
<path fill-rule="evenodd" d="M251,110.9h1.1v-1.1H251v1.1Z" class="g1_1" />
<path fill-rule="evenodd" d="M251,110.9h1.1v-1.1H251v1.1Z" class="g1_1" />
<path fill-rule="evenodd" d="M252.1,110.9H683.8v-1.1H252.1v1.1Z" class="g1_1" />
<path fill-rule="evenodd" d="M683.8,110.9h1.1v-1.1h-1.1v1.1Z" class="g1_1" />
<path fill-rule="evenodd" d="M683.8,110.9h1.1v-1.1h-1.1v1.1Z" class="g1_1" />
<path fill-rule="evenodd" d="M251,109.8h1.1V89.6H251v20.2Z" class="g1_1" />
<path fill-rule="evenodd" d="M683.8,109.8h1.1V89.6h-1.1v20.2Z" class="g1_1" />
<path fill-rule="evenodd" d="M688.2,92.4h1.1V91.3h-1.1v1.1Z" class="g1_1" />
<path fill-rule="evenodd" d="M688.2,92.4h1.1V91.3h-1.1v1.1Z" class="g1_1" />
<path fill-rule="evenodd" d="M689.3,92.4H897.8V91.3H689.3v1.1Z" class="g1_1" />
<path fill-rule="evenodd" d="M897.8,92.4h1.1V91.3h-1.1v1.1Z" class="g1_1" />
<path fill-rule="evenodd" d="M897.8,92.4h1.1V91.3h-1.1v1.1Z" class="g1_1" />
<path fill-rule="evenodd" d="M688.2,110.9h1.1v-1.1h-1.1v1.1Z" class="g1_1" />
<path fill-rule="evenodd" d="M688.2,110.9h1.1v-1.1h-1.1v1.1Z" class="g1_1" />
<path fill-rule="evenodd" d="M689.3,110.9H897.8v-1.1H689.3v1.1Z" class="g1_1" />
<path fill-rule="evenodd" d="M897.8,110.9h1.1v-1.1h-1.1v1.1Z" class="g1_1" />
<path fill-rule="evenodd" d="M897.8,110.9h1.1v-1.1h-1.1v1.1Z" class="g1_1" />
<path fill-rule="evenodd" d="M688.2,109.8h1.1V92.4h-1.1v17.4Z" class="g1_1" />
<path fill-rule="evenodd" d="M897.8,109.8h1.1V92.4h-1.1v17.4Z" class="g1_1" />
<path fill-rule="evenodd" d="M901.4,112.6h1.2V92.4h-1.2v20.2Z" class="g0_1" />
<path fill-rule="evenodd" d="M56.8,115.3h1.1v-2.7H56.8v2.7Z" class="g0_1" />
<path fill-rule="evenodd" d="M901.4,115.3h1.2v-2.7h-1.2v2.7Z" class="g0_1" />
<path fill-rule="evenodd" d="M60.7,149.1h1.1V148H60.7v1.1Z" class="g1_1" />
<path fill-rule="evenodd" d="M60.7,149.1h1.1V148H60.7v1.1Z" class="g1_1" />
<path fill-rule="evenodd" d="M61.8,149.1h185V148H61.8v1.1Z" class="g1_1" />
<path fill-rule="evenodd" d="M246.8,149.1h1.1V148h-1.1v1.1Z" class="g1_1" />
<path fill-rule="evenodd" d="M246.8,149.1h1.1V148h-1.1v1.1Z" class="g1_1" />
<path fill-rule="evenodd" d="M60.7,148h1.1V112.6H60.7V148Z" class="g1_1" />
<path fill-rule="evenodd" d="M246.8,148h1.1V112.6h-1.1V148Z" class="g1_1" />
<path fill-rule="evenodd" d="M56.8,152.2h1.1V115.3H56.8v36.9Z" class="g0_1" />
<path fill-rule="evenodd" d="M56.8,153.3h1.1v-1.1H56.8v1.1Z" class="g0_1" />
<path fill-rule="evenodd" d="M56.8,153.3h1.1v-1.1H56.8v1.1Z" class="g0_1" />
<path fill-rule="evenodd" d="M57.9,153.3H249.5v-1.1H57.9v1.1Z" class="g0_1" />
<path fill-rule="evenodd" d="M251,115.3h1.1v-1.1H251v1.1Z" class="g1_1" />
<path fill-rule="evenodd" d="M251,115.3h1.1v-1.1H251v1.1Z" class="g1_1" />
<path fill-rule="evenodd" d="M252.1,115.3H683.8v-1.1H252.1v1.1Z" class="g1_1" />
<path fill-rule="evenodd" d="M683.8,115.3h1.1v-1.1h-1.1v1.1Z" class="g1_1" />
<path fill-rule="evenodd" d="M683.8,115.3h1.1v-1.1h-1.1v1.1Z" class="g1_1" />
<path fill-rule="evenodd" d="M251,149.1h1.1V148H251v1.1Z" class="g1_1" />
<path fill-rule="evenodd" d="M251,149.1h1.1V148H251v1.1Z" class="g1_1" />
<path fill-rule="evenodd" d="M252.1,149.1H683.8V148H252.1v1.1Z" class="g1_1" />
<path fill-rule="evenodd" d="M683.8,149.1h1.1V148h-1.1v1.1Z" class="g1_1" />
<path fill-rule="evenodd" d="M683.8,149.1h1.1V148h-1.1v1.1Z" class="g1_1" />
<path fill-rule="evenodd" d="M251,148h1.1V115.3H251V148Z" class="g1_1" />
<path fill-rule="evenodd" d="M683.8,148h1.1V115.3h-1.1V148Z" class="g1_1" />
<path fill-rule="evenodd" d="M249.5,153.3h1.1v-1.1h-1.1v1.1Z" class="g0_1" />
<path fill-rule="evenodd" d="M250.6,153.3H686.5v-1.1H250.6v1.1Z" class="g0_1" />
<path fill-rule="evenodd" d="M688.2,115.3h1.1v-1.1h-1.1v1.1Z" class="g1_1" />
<path fill-rule="evenodd" d="M688.2,115.3h1.1v-1.1h-1.1v1.1Z" class="g1_1" />
<path fill-rule="evenodd" d="M689.3,115.3H897.8v-1.1H689.3v1.1Z" class="g1_1" />
<path fill-rule="evenodd" d="M897.8,115.3h1.1v-1.1h-1.1v1.1Z" class="g1_1" />
<path fill-rule="evenodd" d="M897.8,115.3h1.1v-1.1h-1.1v1.1Z" class="g1_1" />
<path fill-rule="evenodd" d="M688.2,149.1h1.1V148h-1.1v1.1Z" class="g1_1" />
<path fill-rule="evenodd" d="M688.2,149.1h1.1V148h-1.1v1.1Z" class="g1_1" />
<path fill-rule="evenodd" d="M689.3,149.1H897.8V148H689.3v1.1Z" class="g1_1" />
<path fill-rule="evenodd" d="M897.8,149.1h1.1V148h-1.1v1.1Z" class="g1_1" />
<path fill-rule="evenodd" d="M897.8,149.1h1.1V148h-1.1v1.1Z" class="g1_1" />
<path fill-rule="evenodd" d="M688.2,148h1.1V115.3h-1.1V148Z" class="g1_1" />
<path fill-rule="evenodd" d="M897.8,148h1.1V115.3h-1.1V148Z" class="g1_1" />
<path fill-rule="evenodd" d="M686.6,153.3h1.1v-1.1h-1.1v1.1Z" class="g0_1" />
<path fill-rule="evenodd" d="M687.7,153.3H901.5v-1.1H687.7v1.1Z" class="g0_1" />
<path fill-rule="evenodd" d="M901.4,152.2h1.2V115.3h-1.2v36.9Z" class="g0_1" />
<path fill-rule="evenodd" d="M901.4,153.3h1.2v-1.1h-1.2v1.1Z" class="g0_1" />
<path fill-rule="evenodd" d="M901.4,153.3h1.2v-1.1h-1.2v1.1Z" class="g0_1" />
<path fill-rule="evenodd" d="M100.5,191.1H411.3v-16H100.5v16Z" class="g2_1" />
<path fill-rule="evenodd" d="M108.4,191.1h295v-16h-295v16Z" class="g2_1" />
<path fill-rule="evenodd" d="M412,191.1h83.5v-16H412v16Z" class="g2_1" />
<path fill-rule="evenodd" d="M419.9,191.1h67.7v-16H419.9v16Z" class="g2_1" />
<path fill-rule="evenodd" d="M496.2,191.1H703.8v-16H496.2v16Z" class="g2_1" />
<path fill-rule="evenodd" d="M504.1,191.1H695.9v-16H504.1v16Z" class="g2_1" />
<path fill-rule="evenodd" d="M704.5,191.1H876.9v-16H704.5v16Z" class="g2_1" />
<path fill-rule="evenodd" d="M712.4,191.1H869.2v-16H712.4v16Z" class="g2_1" />
<path fill-rule="evenodd" d="M99.8,175.1h.7v-.7h-.7v.7Z" class="g1_1" />
<path fill-rule="evenodd" d="M99.8,175.1h.7v-.7h-.7v.7Z" class="g1_1" />
<path fill-rule="evenodd" d="M100.5,175.1H411.3v-.7H100.5v.7Z" class="g1_1" />
<path fill-rule="evenodd" d="M411.3,175.1h.7v-.7h-.7v.7Z" class="g1_1" />
<path fill-rule="evenodd" d="M412,175.1h83.5v-.7H412v.7Z" class="g1_1" />
<path fill-rule="evenodd" d="M495.5,175.1h.7v-.7h-.7v.7Z" class="g1_1" />
<path fill-rule="evenodd" d="M496.2,175.1H703.8v-.7H496.2v.7Z" class="g1_1" />
<path fill-rule="evenodd" d="M703.8,175.1h.7v-.7h-.7v.7Z" class="g1_1" />
<path fill-rule="evenodd" d="M704.5,175.1H877.1v-.7H704.5v.7Z" class="g1_1" />
<path fill-rule="evenodd" d="M877.1,175.1h.7v-.7h-.7v.7Z" class="g1_1" />
<path fill-rule="evenodd" d="M877.1,175.1h.7v-.7h-.7v.7Z" class="g1_1" />
<path fill-rule="evenodd" d="M99.8,191.1h.7v-16h-.7v16Z" class="g1_1" />
<path fill-rule="evenodd" d="M411.3,191.1h.7v-16h-.7v16Z" class="g1_1" />
<path fill-rule="evenodd" d="M495.5,191.1h.7v-16h-.7v16Z" class="g1_1" />
<path fill-rule="evenodd" d="M703.8,191.1h.7v-16h-.7v16Z" class="g1_1" />
<path fill-rule="evenodd" d="M877.1,191.1h.7v-16h-.7v16Z" class="g1_1" />
<path fill-rule="evenodd" d="M99.8,191.8h.7v-.7h-.7v.7Z" class="g1_1" />
<path fill-rule="evenodd" d="M100.5,191.8H411.3v-.7H100.5v.7Z" class="g1_1" />
<path fill-rule="evenodd" d="M411.3,191.8h.7v-.7h-.7v.7Z" class="g1_1" />
<path fill-rule="evenodd" d="M412,191.8h83.5v-.7H412v.7Z" class="g1_1" />
<path fill-rule="evenodd" d="M495.5,191.8h.7v-.7h-.7v.7Z" class="g1_1" />
<path fill-rule="evenodd" d="M496.2,191.8H703.8v-.7H496.2v.7Z" class="g1_1" />
<path fill-rule="evenodd" d="M703.8,191.8h.7v-.7h-.7v.7Z" class="g1_1" />
<path fill-rule="evenodd" d="M704.5,191.8h53.4v-.7H704.5v.7Z" class="g1_1" />
<path fill-rule="evenodd" d="M757.9,191.8h.7v-.7h-.7v.7Z" class="g1_1" />
<path fill-rule="evenodd" d="M758.6,191.8H812v-.7H758.6v.7Z" class="g1_1" />
<path fill-rule="evenodd" d="M812,191.8h.7v-.7H812v.7Z" class="g1_1" />
<path fill-rule="evenodd" d="M812.7,191.8h64.4v-.7H812.7v.7Z" class="g1_1" />
<path fill-rule="evenodd" d="M877.1,191.8h.7v-.7h-.7v.7Z" class="g1_1" />
<path fill-rule="evenodd" d="M99.8,223.3h.7V191.8h-.7v31.5Z" class="g1_1" />
<path fill-rule="evenodd" d="M411.3,223.3h.7V191.8h-.7v31.5Z" class="g1_1" />
<path fill-rule="evenodd" d="M495.5,223.3h.7V191.8h-.7v31.5Z" class="g1_1" />
<path fill-rule="evenodd" d="M703.8,223.3h.7V191.8h-.7v31.5Z" class="g1_1" />
<path fill-rule="evenodd" d="M757.9,223.3h.7V191.8h-.7v31.5Z" class="g1_1" />
<path fill-rule="evenodd" d="M812,223.3h.7V191.8H812v31.5Z" class="g1_1" />
<path fill-rule="evenodd" d="M877.1,223.3h.7V191.8h-.7v31.5Z" class="g1_1" />
<path fill-rule="evenodd" d="M100.5,240H411.3V224.1H100.5V240Z" class="g2_1" />
<path fill-rule="evenodd" d="M108.4,240h295V224.1h-295V240Z" class="g2_1" />
<path fill-rule="evenodd" d="M412,240H703.6V224.1H412V240Z" class="g2_1" />
<path fill-rule="evenodd" d="M419.9,240h276V224.1h-276V240Z" class="g2_1" />
<path fill-rule="evenodd" d="M704.5,240H876.9V224.1H704.5V240Z" class="g2_1" />
<path fill-rule="evenodd" d="M712.4,240H869.2V224.1H712.4V240Z" class="g2_1" />
<path fill-rule="evenodd" d="M99.8,224.1h.7v-.8h-.7v.8Z" class="g1_1" />
<path fill-rule="evenodd" d="M100.5,224.1H411.3v-.8H100.5v.8Z" class="g1_1" />
<path fill-rule="evenodd" d="M411.3,224.1h.7v-.8h-.7v.8Z" class="g1_1" />
<path fill-rule="evenodd" d="M412,224.1h83.5v-.8H412v.8Z" class="g1_1" />
<path fill-rule="evenodd" d="M495.5,224.1h.7v-.8h-.7v.8Z" class="g1_1" />
<path fill-rule="evenodd" d="M496.2,224.1H703.8v-.8H496.2v.8Z" class="g1_1" />
<path fill-rule="evenodd" d="M703.8,224.1h.7v-.8h-.7v.8Z" class="g1_1" />
<path fill-rule="evenodd" d="M704.5,224.1h53.4v-.8H704.5v.8Z" class="g1_1" />
<path fill-rule="evenodd" d="M757.9,224.1h.7v-.8h-.7v.8Z" class="g1_1" />
<path fill-rule="evenodd" d="M758.6,224.1H812v-.8H758.6v.8Z" class="g1_1" />
<path fill-rule="evenodd" d="M812,224.1h.7v-.8H812v.8Z" class="g1_1" />
<path fill-rule="evenodd" d="M812.7,224.1h64.4v-.8H812.7v.8Z" class="g1_1" />
<path fill-rule="evenodd" d="M877.1,224.1h.7v-.8h-.7v.8Z" class="g1_1" />
<path fill-rule="evenodd" d="M99.8,240h.7V224.1h-.7V240Z" class="g1_1" />
<path fill-rule="evenodd" d="M411.3,240h.7V224.1h-.7V240Z" class="g1_1" />
<path fill-rule="evenodd" d="M703.8,240h.7V224.1h-.7V240Z" class="g1_1" />
<path fill-rule="evenodd" d="M877.1,240h.7V224.1h-.7V240Z" class="g1_1" />
<path fill-rule="evenodd" d="M99.8,240.7h.7V240h-.7v.7Z" class="g1_1" />
<path fill-rule="evenodd" d="M100.5,240.7H411.3V240H100.5v.7Z" class="g1_1" />
<path fill-rule="evenodd" d="M411.3,240.7h.7V240h-.7v.7Z" class="g1_1" />
<path fill-rule="evenodd" d="M412,240.7H703.8V240H412v.7Z" class="g1_1" />
<path fill-rule="evenodd" d="M703.8,240.7h.7V240h-.7v.7Z" class="g1_1" />
<path fill-rule="evenodd" d="M704.5,240.7H877.1V240H704.5v.7Z" class="g1_1" />
<path fill-rule="evenodd" d="M877.1,240.7h.7V240h-.7v.7Z" class="g1_1" />
<path fill-rule="evenodd" d="M99.8,272.3h.7V240.7h-.7v31.6Z" class="g1_1" />
<path fill-rule="evenodd" d="M411.3,272.3h.7V240.7h-.7v31.6Z" class="g1_1" />
<path fill-rule="evenodd" d="M703.8,272.3h.7V240.7h-.7v31.6Z" class="g1_1" />
<path fill-rule="evenodd" d="M877.1,272.3h.7V240.7h-.7v31.6Z" class="g1_1" />
<path fill-rule="evenodd" d="M100.5,289H411.3V273.2H100.5V289Z" class="g2_1" />
<path fill-rule="evenodd" d="M108.4,289h295V273.2h-295V289Z" class="g2_1" />
<path fill-rule="evenodd" d="M412,289H703.6V273.2H412V289Z" class="g2_1" />
<path fill-rule="evenodd" d="M419.9,289h276V273.2h-276V289Z" class="g2_1" />
<path fill-rule="evenodd" d="M704.5,289H876.9V273.2H704.5V289Z" class="g2_1" />
<path fill-rule="evenodd" d="M712.4,289H869.2V273.2H712.4V289Z" class="g2_1" />
<path fill-rule="evenodd" d="M99.8,273h.7v-.7h-.7v.7Z" class="g1_1" />
<path fill-rule="evenodd" d="M100.5,273H411.3v-.7H100.5v.7Z" class="g1_1" />
<path fill-rule="evenodd" d="M411.3,273h.7v-.7h-.7v.7Z" class="g1_1" />
<path fill-rule="evenodd" d="M412,273H703.8v-.7H412v.7Z" class="g1_1" />
<path fill-rule="evenodd" d="M703.8,273h.7v-.7h-.7v.7Z" class="g1_1" />
<path fill-rule="evenodd" d="M704.5,273H877.1v-.7H704.5v.7Z" class="g1_1" />
<path fill-rule="evenodd" d="M877.1,273h.7v-.7h-.7v.7Z" class="g1_1" />
<path fill-rule="evenodd" d="M99.8,289h.7V273h-.7v16Z" class="g1_1" />
<path fill-rule="evenodd" d="M411.3,289h.7V273h-.7v16Z" class="g1_1" />
<path fill-rule="evenodd" d="M703.8,289h.7V273h-.7v16Z" class="g1_1" />
<path fill-rule="evenodd" d="M877.1,289h.7V273h-.7v16Z" class="g1_1" />
<path fill-rule="evenodd" d="M99.8,289.7h.7V289h-.7v.7Z" class="g1_1" />
<path fill-rule="evenodd" d="M100.5,289.7H411.3V289H100.5v.7Z" class="g1_1" />
<path fill-rule="evenodd" d="M411.3,289.7h.7V289h-.7v.7Z" class="g1_1" />
<path fill-rule="evenodd" d="M412,289.7H703.8V289H412v.7Z" class="g1_1" />
<path fill-rule="evenodd" d="M703.8,289.7h.7V289h-.7v.7Z" class="g1_1" />
<path fill-rule="evenodd" d="M704.5,289.7H877.1V289H704.5v.7Z" class="g1_1" />
<path fill-rule="evenodd" d="M877.1,289.7h.7V289h-.7v.7Z" class="g1_1" />
<path fill-rule="evenodd" d="M99.8,321.2h.7V289.7h-.7v31.5Z" class="g1_1" />
<path fill-rule="evenodd" d="M411.3,321.2h.7V289.7h-.7v31.5Z" class="g1_1" />
<path fill-rule="evenodd" d="M703.8,321.2h.7V289.7h-.7v31.5Z" class="g1_1" />
<path fill-rule="evenodd" d="M877.1,321.2h.7V289.7h-.7v31.5Z" class="g1_1" />
<path fill-rule="evenodd" d="M100.5,337.9h395V322.1h-395v15.8Z" class="g2_1" />
<path fill-rule="evenodd" d="M108.4,337.9H487.6V322.1H108.4v15.8Z" class="g2_1" />
<path fill-rule="evenodd" d="M496.2,337.9H876.9V322.1H496.2v15.8Z" class="g2_1" />
<path fill-rule="evenodd" d="M504.1,337.9H869.2V322.1H504.1v15.8Z" class="g2_1" />
<path fill-rule="evenodd" d="M99.8,322h.7v-.8h-.7v.8Z" class="g1_1" />
<path fill-rule="evenodd" d="M100.5,322H411.3v-.8H100.5v.8Z" class="g1_1" />
<path fill-rule="evenodd" d="M411.3,322h.7v-.8h-.7v.8Z" class="g1_1" />
<path fill-rule="evenodd" d="M412,322h83.5v-.8H412v.8Z" class="g1_1" />
<path fill-rule="evenodd" d="M495.5,322h.7v-.8h-.7v.8Z" class="g1_1" />
<path fill-rule="evenodd" d="M496.2,322H703.8v-.8H496.2v.8Z" class="g1_1" />
<path fill-rule="evenodd" d="M703.8,322h.7v-.8h-.7v.8Z" class="g1_1" />
<path fill-rule="evenodd" d="M704.5,322H877.1v-.8H704.5v.8Z" class="g1_1" />
<path fill-rule="evenodd" d="M877.1,322h.7v-.8h-.7v.8Z" class="g1_1" />
<path fill-rule="evenodd" d="M99.8,337.9h.7V322h-.7v15.9Z" class="g1_1" />
<path fill-rule="evenodd" d="M495.5,337.9h.7V322h-.7v15.9Z" class="g1_1" />
<path fill-rule="evenodd" d="M877.1,337.9h.7V322h-.7v15.9Z" class="g1_1" />
<path fill-rule="evenodd" d="M99.8,338.6h.7v-.7h-.7v.7Z" class="g1_1" />
<path fill-rule="evenodd" d="M100.5,338.6h395v-.7h-395v.7Z" class="g1_1" />
<path fill-rule="evenodd" d="M495.5,338.6h.7v-.7h-.7v.7Z" class="g1_1" />
<path fill-rule="evenodd" d="M496.2,338.6H877.1v-.7H496.2v.7Z" class="g1_1" />
<path fill-rule="evenodd" d="M877.1,338.6h.7v-.7h-.7v.7Z" class="g1_1" />
<path fill-rule="evenodd" d="M99.8,372.2h.7V338.7h-.7v33.5Z" class="g1_1" />
<path fill-rule="evenodd" d="M99.8,373h.7v-.8h-.7v.8Z" class="g1_1" />
<path fill-rule="evenodd" d="M99.8,373h.7v-.8h-.7v.8Z" class="g1_1" />
<path fill-rule="evenodd" d="M100.5,373h395v-.8h-395v.8Z" class="g1_1" />
<path fill-rule="evenodd" d="M495.5,372.2h.7V338.7h-.7v33.5Z" class="g1_1" />
<path fill-rule="evenodd" d="M495.5,373h.7v-.8h-.7v.8Z" class="g1_1" />
<path fill-rule="evenodd" d="M496.2,373H877.1v-.8H496.2v.8Z" class="g1_1" />
<path fill-rule="evenodd" d="M877.1,372.2h.7V338.7h-.7v33.5Z" class="g1_1" />
<path fill-rule="evenodd" d="M877.1,373h.7v-.8h-.7v.8Z" class="g1_1" />
<path fill-rule="evenodd" d="M877.1,373h.7v-.8h-.7v.8Z" class="g1_1" />
<path fill-rule="evenodd" d="M100.5,420.3H411.3V387.8H100.5v32.5Z" class="g2_1" />
<path fill-rule="evenodd" d="M108.4,411.8h295V396.1h-295v15.7Z" class="g2_1" />
<path fill-rule="evenodd" d="M412,403.6H649.5V387.8H412v15.8Z" class="g2_1" />
<path fill-rule="evenodd" d="M419.9,403.6H641.6V387.8H419.9v15.8Z" class="g2_1" />
<path fill-rule="evenodd" d="M650.2,403.6H747V387.8H650.2v15.8Z" class="g2_1" />
<path fill-rule="evenodd" d="M658.1,403.6h81.1V387.8H658.1v15.8Z" class="g2_1" />
<path fill-rule="evenodd" d="M747.8,403.6H876.9V387.8H747.8v15.8Z" class="g2_1" />
<path fill-rule="evenodd" d="M755.7,402.7H869.2v-14H755.7v14Z" class="g2_1" />
<path fill-rule="evenodd" d="M99.8,387.8h.7v-.7h-.7v.7Z" class="g1_1" />
<path fill-rule="evenodd" d="M99.8,387.8h.7v-.7h-.7v.7Z" class="g1_1" />
<path fill-rule="evenodd" d="M100.5,387.8H411.3v-.7H100.5v.7Z" class="g1_1" />
<path fill-rule="evenodd" d="M411.3,387.8h.7v-.7h-.7v.7Z" class="g1_1" />
<path fill-rule="evenodd" d="M412,387.8H649.5v-.7H412v.7Z" class="g1_1" />
<path fill-rule="evenodd" d="M649.5,387.8h.7v-.7h-.7v.7Z" class="g1_1" />
<path fill-rule="evenodd" d="M650.2,387.8H747v-.7H650.2v.7Z" class="g1_1" />
<path fill-rule="evenodd" d="M747.1,387.8h.7v-.7h-.7v.7Z" class="g1_1" />
<path fill-rule="evenodd" d="M747.8,387.8H877.1v-.7H747.8v.7Z" class="g1_1" />
<path fill-rule="evenodd" d="M877.1,387.8h.7v-.7h-.7v.7Z" class="g1_1" />
<path fill-rule="evenodd" d="M877.1,387.8h.7v-.7h-.7v.7Z" class="g1_1" />
<path fill-rule="evenodd" d="M99.8,403.6h.7V387.8h-.7v15.8Z" class="g1_1" />
<path fill-rule="evenodd" d="M411.3,403.6h.7V387.8h-.7v15.8Z" class="g1_1" />
<path fill-rule="evenodd" d="M649.5,403.6h.7V387.8h-.7v15.8Z" class="g1_1" />
<path fill-rule="evenodd" d="M747.1,403.6h.7V387.8h-.7v15.8Z" class="g1_1" />
<path fill-rule="evenodd" d="M877.1,403.6h.7V387.8h-.7v15.8Z" class="g1_1" />
<path fill-rule="evenodd" d="M412,420.3h64.2v-16H412v16Z" class="g2_1" />
<path fill-rule="evenodd" d="M419.9,420.3h48.4v-16H419.9v16Z" class="g2_1" />
<path fill-rule="evenodd" d="M477,420.3H649.5v-16H477v16Z" class="g2_1" />
<path fill-rule="evenodd" d="M484.8,420.3H641.6v-16H484.8v16Z" class="g2_1" />
<path fill-rule="evenodd" d="M650.2,420.3H682v-16H650.2v16Z" class="g2_1" />
<path fill-rule="evenodd" d="M658.1,420.3h16v-16h-16v16Z" class="g2_1" />
<path fill-rule="evenodd" d="M682.7,420.3h31.7v-16H682.7v16Z" class="g2_1" />
<path fill-rule="evenodd" d="M690.6,420.3h15.9v-16H690.6v16Z" class="g2_1" />
<path fill-rule="evenodd" d="M715.2,420.3h31.9v-16H715.2v16Z" class="g2_1" />
<path fill-rule="evenodd" d="M723,420.3h16.2v-16H723v16Z" class="g2_1" />
<path fill-rule="evenodd" d="M747.8,420.3H812v-16H747.8v16Z" class="g2_1" />
<path fill-rule="evenodd" d="M755.7,418.4h48.4V406.2H755.7v12.2Z" class="g2_1" />
<path fill-rule="evenodd" d="M812.7,420.3h64.2v-16H812.7v16Z" class="g2_1" />
<path fill-rule="evenodd" d="M820.6,418.4h48.6V406.2H820.6v12.2Z" class="g2_1" />
<path fill-rule="evenodd" d="M99.8,404.3h.7v-.7h-.7v.7Z" class="g1_1" />
<path fill-rule="evenodd" d="M411.3,404.3h.7v-.7h-.7v.7Z" class="g1_1" />
<path fill-rule="evenodd" d="M412,404.3h64.2v-.7H412v.7Z" class="g1_1" />
<path fill-rule="evenodd" d="M476.2,404.3h.8v-.7h-.8v.7Z" class="g1_1" />
<path fill-rule="evenodd" d="M477,404.3H649.5v-.7H477v.7Z" class="g1_1" />
<path fill-rule="evenodd" d="M649.5,404.3h.7v-.7h-.7v.7Z" class="g1_1" />
<path fill-rule="evenodd" d="M650.2,404.3H682v-.7H650.2v.7Z" class="g1_1" />
<path fill-rule="evenodd" d="M682,404.3h.7v-.7H682v.7Z" class="g1_1" />
<path fill-rule="evenodd" d="M682.7,404.3h31.9v-.7H682.7v.7Z" class="g1_1" />
<path fill-rule="evenodd" d="M714.6,404.3h.7v-.7h-.7v.7Z" class="g1_1" />
<path fill-rule="evenodd" d="M715.3,404.3h31.8v-.7H715.3v.7Z" class="g1_1" />
<path fill-rule="evenodd" d="M747.1,404.3h.7v-.7h-.7v.7Z" class="g1_1" />
<path fill-rule="evenodd" d="M747.8,404.3H812v-.7H747.8v.7Z" class="g1_1" />
<path fill-rule="evenodd" d="M812,404.3h.7v-.7H812v.7Z" class="g1_1" />
<path fill-rule="evenodd" d="M812.7,404.3h64.4v-.7H812.7v.7Z" class="g1_1" />
<path fill-rule="evenodd" d="M877.1,404.3h.7v-.7h-.7v.7Z" class="g1_1" />
<path fill-rule="evenodd" d="M99.8,420.3h.7v-16h-.7v16Z" class="g1_1" />
<path fill-rule="evenodd" d="M411.3,420.3h.7v-16h-.7v16Z" class="g1_1" />
<path fill-rule="evenodd" d="M476.2,420.3h.8v-16h-.8v16Z" class="g1_1" />
<path fill-rule="evenodd" d="M649.5,420.3h.7v-16h-.7v16Z" class="g1_1" />
<path fill-rule="evenodd" d="M682,420.3h.7v-16H682v16Z" class="g1_1" />
<path fill-rule="evenodd" d="M714.6,420.3h.7v-16h-.7v16Z" class="g1_1" />
<path fill-rule="evenodd" d="M747.1,420.3h.7v-16h-.7v16Z" class="g1_1" />
<path fill-rule="evenodd" d="M812,420.3h.7v-16H812v16Z" class="g1_1" />
<path fill-rule="evenodd" d="M877.1,420.3h.7v-16h-.7v16Z" class="g1_1" />
<path fill-rule="evenodd" d="M99.8,421h.7v-.7h-.7v.7Z" class="g1_1" />
<path fill-rule="evenodd" d="M100.5,421h30.3v-.7H100.5v.7Z" class="g1_1" />
<path fill-rule="evenodd" d="M130.8,421h.7v-.7h-.7v.7Z" class="g1_1" />
<path fill-rule="evenodd" d="M131.5,421H411.3v-.7H131.5v.7Z" class="g1_1" />
<path fill-rule="evenodd" d="M411.3,421h.7v-.7h-.7v.7Z" class="g1_1" />
<path fill-rule="evenodd" d="M412,421h64.2v-.7H412v.7Z" class="g1_1" />
<path fill-rule="evenodd" d="M476.2,421h.8v-.7h-.8v.7Z" class="g1_1" />
<path fill-rule="evenodd" d="M477,421H649.5v-.7H477v.7Z" class="g1_1" />
<path fill-rule="evenodd" d="M649.5,421h.7v-.7h-.7v.7Z" class="g1_1" />
<path fill-rule="evenodd" d="M650.2,421H682v-.7H650.2v.7Z" class="g1_1" />
<path fill-rule="evenodd" d="M682,421h.7v-.7H682v.7Z" class="g1_1" />
<path fill-rule="evenodd" d="M682.7,421h31.9v-.7H682.7v.7Z" class="g1_1" />
<path fill-rule="evenodd" d="M714.6,421h.7v-.7h-.7v.7Z" class="g1_1" />
<path fill-rule="evenodd" d="M715.3,421h31.8v-.7H715.3v.7Z" class="g1_1" />
<path fill-rule="evenodd" d="M747.1,421h.7v-.7h-.7v.7Z" class="g1_1" />
<path fill-rule="evenodd" d="M747.8,421H812v-.7H747.8v.7Z" class="g1_1" />
<path fill-rule="evenodd" d="M812,421h.7v-.7H812v.7Z" class="g1_1" />
<path fill-rule="evenodd" d="M812.7,421h64.4v-.7H812.7v.7Z" class="g1_1" />
<path fill-rule="evenodd" d="M877.1,421h.7v-.7h-.7v.7Z" class="g1_1" />
<path fill-rule="evenodd" d="M99.8,448.7h.7V421h-.7v27.7Z" class="g1_1" />
<path fill-rule="evenodd" d="M130.8,448.7h.7V421h-.7v27.7Z" class="g1_1" />
<path fill-rule="evenodd" d="M411.3,448.7h.7V421h-.7v27.7Z" class="g1_1" />
<path fill-rule="evenodd" d="M476.2,448.7h.8V421h-.8v27.7Z" class="g1_1" />
<path fill-rule="evenodd" d="M649.5,448.7h.7V421h-.7v27.7Z" class="g1_1" />
<path fill-rule="evenodd" d="M682,448.7h.7V421H682v27.7Z" class="g1_1" />
<path fill-rule="evenodd" d="M714.6,448.7h.7V421h-.7v27.7Z" class="g1_1" />
<path fill-rule="evenodd" d="M747.1,448.7h.7V421h-.7v27.7Z" class="g1_1" />
<path fill-rule="evenodd" d="M812,448.7h.7V421H812v27.7Z" class="g1_1" />
<path fill-rule="evenodd" d="M877.1,448.7h.7V421h-.7v27.7Z" class="g1_1" />
<path fill-rule="evenodd" d="M99.8,449.4h.7v-.7h-.7v.7Z" class="g1_1" />
<path fill-rule="evenodd" d="M100.5,449.4h30.3v-.7H100.5v.7Z" class="g1_1" />
<path fill-rule="evenodd" d="M130.8,449.4h.7v-.7h-.7v.7Z" class="g1_1" />
<path fill-rule="evenodd" d="M131.5,449.4H411.3v-.7H131.5v.7Z" class="g1_1" />
<path fill-rule="evenodd" d="M411.3,449.4h.7v-.7h-.7v.7Z" class="g1_1" />
<path fill-rule="evenodd" d="M412,449.4h64.2v-.7H412v.7Z" class="g1_1" />
<path fill-rule="evenodd" d="M476.2,449.4h.8v-.7h-.8v.7Z" class="g1_1" />
<path fill-rule="evenodd" d="M477,449.4H649.5v-.7H477v.7Z" class="g1_1" />
<path fill-rule="evenodd" d="M649.5,449.4h.7v-.7h-.7v.7Z" class="g1_1" />
<path fill-rule="evenodd" d="M650.2,449.4H682v-.7H650.2v.7Z" class="g1_1" />
<path fill-rule="evenodd" d="M682,449.4h.7v-.7H682v.7Z" class="g1_1" />
<path fill-rule="evenodd" d="M682.7,449.4h31.9v-.7H682.7v.7Z" class="g1_1" />
<path fill-rule="evenodd" d="M714.6,449.4h.7v-.7h-.7v.7Z" class="g1_1" />
<path fill-rule="evenodd" d="M715.3,449.4h31.8v-.7H715.3v.7Z" class="g1_1" />
<path fill-rule="evenodd" d="M747.1,449.4h.7v-.7h-.7v.7Z" class="g1_1" />
<path fill-rule="evenodd" d="M747.8,449.4H812v-.7H747.8v.7Z" class="g1_1" />
<path fill-rule="evenodd" d="M812,449.4h.7v-.7H812v.7Z" class="g1_1" />
<path fill-rule="evenodd" d="M812.7,449.4h64.4v-.7H812.7v.7Z" class="g1_1" />
<path fill-rule="evenodd" d="M877.1,449.4h.7v-.7h-.7v.7Z" class="g1_1" />
<path fill-rule="evenodd" d="M99.8,477.1h.7V449.4h-.7v27.7Z" class="g1_1" />
<path fill-rule="evenodd" d="M130.8,477.1h.7V449.4h-.7v27.7Z" class="g1_1" />
<path fill-rule="evenodd" d="M411.3,477.1h.7V449.4h-.7v27.7Z" class="g1_1" />
<path fill-rule="evenodd" d="M476.2,477.1h.8V449.4h-.8v27.7Z" class="g1_1" />
<path fill-rule="evenodd" d="M649.5,477.1h.7V449.4h-.7v27.7Z" class="g1_1" />
<path fill-rule="evenodd" d="M682,477.1h.7V449.4H682v27.7Z" class="g1_1" />
<path fill-rule="evenodd" d="M714.6,477.1h.7V449.4h-.7v27.7Z" class="g1_1" />
<path fill-rule="evenodd" d="M747.1,477.1h.7V449.4h-.7v27.7Z" class="g1_1" />
<path fill-rule="evenodd" d="M812,477.1h.7V449.4H812v27.7Z" class="g1_1" />
<path fill-rule="evenodd" d="M877.1,477.1h.7V449.4h-.7v27.7Z" class="g1_1" />
<path fill-rule="evenodd" d="M99.8,477.8h.7v-.7h-.7v.7Z" class="g1_1" />
<path fill-rule="evenodd" d="M100.5,477.8h30.3v-.7H100.5v.7Z" class="g1_1" />
<path fill-rule="evenodd" d="M130.8,477.8h.7v-.7h-.7v.7Z" class="g1_1" />
<path fill-rule="evenodd" d="M131.5,477.8H411.3v-.7H131.5v.7Z" class="g1_1" />
<path fill-rule="evenodd" d="M411.3,477.8h.7v-.7h-.7v.7Z" class="g1_1" />
<path fill-rule="evenodd" d="M412,477.8h64.2v-.7H412v.7Z" class="g1_1" />
<path fill-rule="evenodd" d="M476.2,477.8h.8v-.7h-.8v.7Z" class="g1_1" />
<path fill-rule="evenodd" d="M477,477.8H649.5v-.7H477v.7Z" class="g1_1" />
<path fill-rule="evenodd" d="M649.5,477.8h.7v-.7h-.7v.7Z" class="g1_1" />
<path fill-rule="evenodd" d="M650.2,477.8H682v-.7H650.2v.7Z" class="g1_1" />
<path fill-rule="evenodd" d="M682,477.8h.7v-.7H682v.7Z" class="g1_1" />
<path fill-rule="evenodd" d="M682.7,477.8h31.9v-.7H682.7v.7Z" class="g1_1" />
<path fill-rule="evenodd" d="M714.6,477.8h.7v-.7h-.7v.7Z" class="g1_1" />
<path fill-rule="evenodd" d="M715.3,477.8h31.8v-.7H715.3v.7Z" class="g1_1" />
<path fill-rule="evenodd" d="M747.1,477.8h.7v-.7h-.7v.7Z" class="g1_1" />
<path fill-rule="evenodd" d="M747.8,477.8H812v-.7H747.8v.7Z" class="g1_1" />
<path fill-rule="evenodd" d="M812,477.8h.7v-.7H812v.7Z" class="g1_1" />
<path fill-rule="evenodd" d="M812.7,477.8h64.4v-.7H812.7v.7Z" class="g1_1" />
<path fill-rule="evenodd" d="M877.1,477.8h.7v-.7h-.7v.7Z" class="g1_1" />
<path fill-rule="evenodd" d="M99.8,505.7h.7V477.8h-.7v27.9Z" class="g1_1" />
<path fill-rule="evenodd" d="M130.8,505.7h.7V477.8h-.7v27.9Z" class="g1_1" />
<path fill-rule="evenodd" d="M411.3,505.7h.7V477.8h-.7v27.9Z" class="g1_1" />
<path fill-rule="evenodd" d="M476.2,505.7h.8V477.8h-.8v27.9Z" class="g1_1" />
<path fill-rule="evenodd" d="M649.5,505.7h.7V477.8h-.7v27.9Z" class="g1_1" />
<path fill-rule="evenodd" d="M682,505.7h.7V477.8H682v27.9Z" class="g1_1" />
<path fill-rule="evenodd" d="M714.6,505.7h.7V477.8h-.7v27.9Z" class="g1_1" />
<path fill-rule="evenodd" d="M747.1,505.7h.7V477.8h-.7v27.9Z" class="g1_1" />
<path fill-rule="evenodd" d="M812,505.7h.7V477.8H812v27.9Z" class="g1_1" />
<path fill-rule="evenodd" d="M877.1,505.7h.7V477.8h-.7v27.9Z" class="g1_1" />
<path fill-rule="evenodd" d="M99.8,506.4h.7v-.7h-.7v.7Z" class="g1_1" />
<path fill-rule="evenodd" d="M100.5,506.4h30.3v-.7H100.5v.7Z" class="g1_1" />
<path fill-rule="evenodd" d="M130.8,506.4h.7v-.7h-.7v.7Z" class="g1_1" />
<path fill-rule="evenodd" d="M131.5,506.4H411.3v-.7H131.5v.7Z" class="g1_1" />
<path fill-rule="evenodd" d="M411.3,506.4h.7v-.7h-.7v.7Z" class="g1_1" />
<path fill-rule="evenodd" d="M412,506.4h64.2v-.7H412v.7Z" class="g1_1" />
<path fill-rule="evenodd" d="M476.2,506.4h.8v-.7h-.8v.7Z" class="g1_1" />
<path fill-rule="evenodd" d="M477,506.4H649.5v-.7H477v.7Z" class="g1_1" />
<path fill-rule="evenodd" d="M649.5,506.4h.7v-.7h-.7v.7Z" class="g1_1" />
<path fill-rule="evenodd" d="M650.2,506.4H682v-.7H650.2v.7Z" class="g1_1" />
<path fill-rule="evenodd" d="M682,506.4h.7v-.7H682v.7Z" class="g1_1" />
<path fill-rule="evenodd" d="M682.7,506.4h31.9v-.7H682.7v.7Z" class="g1_1" />
<path fill-rule="evenodd" d="M714.6,506.4h.7v-.7h-.7v.7Z" class="g1_1" />
<path fill-rule="evenodd" d="M715.3,506.4h31.8v-.7H715.3v.7Z" class="g1_1" />
<path fill-rule="evenodd" d="M747.1,506.4h.7v-.7h-.7v.7Z" class="g1_1" />
<path fill-rule="evenodd" d="M747.8,506.4H812v-.7H747.8v.7Z" class="g1_1" />
<path fill-rule="evenodd" d="M812,506.4h.7v-.7H812v.7Z" class="g1_1" />
<path fill-rule="evenodd" d="M812.7,506.4h64.4v-.7H812.7v.7Z" class="g1_1" />
<path fill-rule="evenodd" d="M877.1,506.4h.7v-.7h-.7v.7Z" class="g1_1" />
<path fill-rule="evenodd" d="M99.8,534.1h.7V506.4h-.7v27.7Z" class="g1_1" />
<path fill-rule="evenodd" d="M130.8,534.1h.7V506.4h-.7v27.7Z" class="g1_1" />
<path fill-rule="evenodd" d="M411.3,534.1h.7V506.4h-.7v27.7Z" class="g1_1" />
<path fill-rule="evenodd" d="M476.2,534.1h.8V506.4h-.8v27.7Z" class="g1_1" />
<path fill-rule="evenodd" d="M649.5,534.1h.7V506.4h-.7v27.7Z" class="g1_1" />
<path fill-rule="evenodd" d="M682,534.1h.7V506.4H682v27.7Z" class="g1_1" />
<path fill-rule="evenodd" d="M714.6,534.1h.7V506.4h-.7v27.7Z" class="g1_1" />
<path fill-rule="evenodd" d="M747.1,534.1h.7V506.4h-.7v27.7Z" class="g1_1" />
<path fill-rule="evenodd" d="M812,534.1h.7V506.4H812v27.7Z" class="g1_1" />
<path fill-rule="evenodd" d="M877.1,534.1h.7V506.4h-.7v27.7Z" class="g1_1" />
<path fill-rule="evenodd" d="M99.8,534.9h.7v-.8h-.7v.8Z" class="g1_1" />
<path fill-rule="evenodd" d="M100.5,534.9h30.3v-.8H100.5v.8Z" class="g1_1" />
<path fill-rule="evenodd" d="M130.8,534.9h.7v-.8h-.7v.8Z" class="g1_1" />
<path fill-rule="evenodd" d="M131.5,534.9H411.3v-.8H131.5v.8Z" class="g1_1" />
<path fill-rule="evenodd" d="M411.3,534.9h.7v-.8h-.7v.8Z" class="g1_1" />
<path fill-rule="evenodd" d="M412,534.9h64.2v-.8H412v.8Z" class="g1_1" />
<path fill-rule="evenodd" d="M476.2,534.9h.8v-.8h-.8v.8Z" class="g1_1" />
<path fill-rule="evenodd" d="M477,534.9H649.5v-.8H477v.8Z" class="g1_1" />
<path fill-rule="evenodd" d="M649.5,534.9h.7v-.8h-.7v.8Z" class="g1_1" />
<path fill-rule="evenodd" d="M650.2,534.9H682v-.8H650.2v.8Z" class="g1_1" />
<path fill-rule="evenodd" d="M682,534.9h.7v-.8H682v.8Z" class="g1_1" />
<path fill-rule="evenodd" d="M682.7,534.9h31.9v-.8H682.7v.8Z" class="g1_1" />
<path fill-rule="evenodd" d="M714.6,534.9h.7v-.8h-.7v.8Z" class="g1_1" />
<path fill-rule="evenodd" d="M715.3,534.9h31.8v-.8H715.3v.8Z" class="g1_1" />
<path fill-rule="evenodd" d="M747.1,534.9h.7v-.8h-.7v.8Z" class="g1_1" />
<path fill-rule="evenodd" d="M747.8,534.9H812v-.8H747.8v.8Z" class="g1_1" />
<path fill-rule="evenodd" d="M812,534.9h.7v-.8H812v.8Z" class="g1_1" />
<path fill-rule="evenodd" d="M812.7,534.9h64.4v-.8H812.7v.8Z" class="g1_1" />
<path fill-rule="evenodd" d="M877.1,534.9h.7v-.8h-.7v.8Z" class="g1_1" />
<path fill-rule="evenodd" d="M99.8,562.7h.7V534.9h-.7v27.8Z" class="g1_1" />
<path fill-rule="evenodd" d="M130.8,562.7h.7V534.9h-.7v27.8Z" class="g1_1" />
<path fill-rule="evenodd" d="M411.3,562.7h.7V534.9h-.7v27.8Z" class="g1_1" />
<path fill-rule="evenodd" d="M476.2,562.7h.8V534.9h-.8v27.8Z" class="g1_1" />
<path fill-rule="evenodd" d="M649.5,562.7h.7V534.9h-.7v27.8Z" class="g1_1" />
<path fill-rule="evenodd" d="M682,562.7h.7V534.9H682v27.8Z" class="g1_1" />
<path fill-rule="evenodd" d="M714.6,562.7h.7V534.9h-.7v27.8Z" class="g1_1" />
<path fill-rule="evenodd" d="M747.1,562.7h.7V534.9h-.7v27.8Z" class="g1_1" />
<path fill-rule="evenodd" d="M812,562.7h.7V534.9H812v27.8Z" class="g1_1" />
<path fill-rule="evenodd" d="M877.1,562.7h.7V534.9h-.7v27.8Z" class="g1_1" />
<path fill-rule="evenodd" d="M99.8,563.5h.7v-.8h-.7v.8Z" class="g1_1" />
<path fill-rule="evenodd" d="M100.5,563.5h30.3v-.8H100.5v.8Z" class="g1_1" />
<path fill-rule="evenodd" d="M130.8,563.5h.7v-.8h-.7v.8Z" class="g1_1" />
<path fill-rule="evenodd" d="M131.5,563.5H411.3v-.8H131.5v.8Z" class="g1_1" />
<path fill-rule="evenodd" d="M411.3,563.5h.7v-.8h-.7v.8Z" class="g1_1" />
<path fill-rule="evenodd" d="M412,563.5h64.2v-.8H412v.8Z" class="g1_1" />
<path fill-rule="evenodd" d="M476.2,563.5h.8v-.8h-.8v.8Z" class="g1_1" />
<path fill-rule="evenodd" d="M477,563.5H649.5v-.8H477v.8Z" class="g1_1" />
<path fill-rule="evenodd" d="M649.5,563.5h.7v-.8h-.7v.8Z" class="g1_1" />
<path fill-rule="evenodd" d="M650.2,563.5H682v-.8H650.2v.8Z" class="g1_1" />
<path fill-rule="evenodd" d="M682,563.5h.7v-.8H682v.8Z" class="g1_1" />
<path fill-rule="evenodd" d="M682.7,563.5h31.9v-.8H682.7v.8Z" class="g1_1" />
<path fill-rule="evenodd" d="M714.6,563.5h.7v-.8h-.7v.8Z" class="g1_1" />
<path fill-rule="evenodd" d="M715.3,563.5h31.8v-.8H715.3v.8Z" class="g1_1" />
<path fill-rule="evenodd" d="M747.1,563.5h.7v-.8h-.7v.8Z" class="g1_1" />
<path fill-rule="evenodd" d="M747.8,563.5H812v-.8H747.8v.8Z" class="g1_1" />
<path fill-rule="evenodd" d="M812,563.5h.7v-.8H812v.8Z" class="g1_1" />
<path fill-rule="evenodd" d="M812.7,563.5h64.4v-.8H812.7v.8Z" class="g1_1" />
<path fill-rule="evenodd" d="M877.1,563.5h.7v-.8h-.7v.8Z" class="g1_1" />
<path fill-rule="evenodd" d="M99.8,591.1h.7V563.5h-.7v27.6Z" class="g1_1" />
<path fill-rule="evenodd" d="M99.8,591.9h.7v-.8h-.7v.8Z" class="g1_1" />
<path fill-rule="evenodd" d="M99.8,591.9h.7v-.8h-.7v.8Z" class="g1_1" />
<path fill-rule="evenodd" d="M100.5,591.9h30.3v-.8H100.5v.8Z" class="g1_1" />
<path fill-rule="evenodd" d="M130.8,591.1h.7V563.5h-.7v27.6Z" class="g1_1" />
<path fill-rule="evenodd" d="M130.8,591.9h.7v-.8h-.7v.8Z" class="g1_1" />
<path fill-rule="evenodd" d="M131.5,591.9H411.3v-.8H131.5v.8Z" class="g1_1" />
<path fill-rule="evenodd" d="M411.3,591.1h.7V563.5h-.7v27.6Z" class="g1_1" />
<path fill-rule="evenodd" d="M411.3,591.9h.7v-.8h-.7v.8Z" class="g1_1" />
<path fill-rule="evenodd" d="M412,591.9h64.2v-.8H412v.8Z" class="g1_1" />
<path fill-rule="evenodd" d="M476.2,591.1h.8V563.5h-.8v27.6Z" class="g1_1" />
<path fill-rule="evenodd" d="M476.2,591.9h.8v-.8h-.8v.8Z" class="g1_1" />
<path fill-rule="evenodd" d="M477,591.9H649.5v-.8H477v.8Z" class="g1_1" />
<path fill-rule="evenodd" d="M649.5,591.1h.7V563.5h-.7v27.6Z" class="g1_1" />
<path fill-rule="evenodd" d="M649.5,591.9h.7v-.8h-.7v.8Z" class="g1_1" />
<path fill-rule="evenodd" d="M650.2,591.9H682v-.8H650.2v.8Z" class="g1_1" />
<path fill-rule="evenodd" d="M682,591.1h.7V563.5H682v27.6Z" class="g1_1" />
<path fill-rule="evenodd" d="M682,591.9h.7v-.8H682v.8Z" class="g1_1" />
<path fill-rule="evenodd" d="M682.7,591.9h31.9v-.8H682.7v.8Z" class="g1_1" />
<path fill-rule="evenodd" d="M714.6,591.1h.7V563.5h-.7v27.6Z" class="g1_1" />
<path fill-rule="evenodd" d="M714.6,591.9h.7v-.8h-.7v.8Z" class="g1_1" />
<path fill-rule="evenodd" d="M715.3,591.9h31.8v-.8H715.3v.8Z" class="g1_1" />
<path fill-rule="evenodd" d="M747.1,591.1h.7V563.5h-.7v27.6Z" class="g1_1" />
<path fill-rule="evenodd" d="M747.1,591.9h.7v-.8h-.7v.8Z" class="g1_1" />
<path fill-rule="evenodd" d="M747.8,591.9H812v-.8H747.8v.8Z" class="g1_1" />
<path fill-rule="evenodd" d="M812,591.1h.7V563.5H812v27.6Z" class="g1_1" />
<path fill-rule="evenodd" d="M812,591.9h.7v-.8H812v.8Z" class="g1_1" />
<path fill-rule="evenodd" d="M812.7,591.9h64.4v-.8H812.7v.8Z" class="g1_1" />
<path fill-rule="evenodd" d="M877.1,591.1h.7V563.5h-.7v27.6Z" class="g1_1" />
<path fill-rule="evenodd" d="M877.1,591.9h.7v-.8h-.7v.8Z" class="g1_1" />
<path fill-rule="evenodd" d="M877.1,591.9h.7v-.8h-.7v.8Z" class="g1_1" />
<path fill-rule="evenodd" d="M100.5,622.5H876.9V606.7H100.5v15.8Z" class="g2_1" />
<path fill-rule="evenodd" d="M108.4,622.5H869.2V606.7H108.4v15.8Z" class="g2_1" />
<path fill-rule="evenodd" d="M99.8,606.7h.7V606h-.7v.7Z" class="g1_1" />
<path fill-rule="evenodd" d="M99.8,606.7h.7V606h-.7v.7Z" class="g1_1" />
<path fill-rule="evenodd" d="M100.5,606.7H877.1V606H100.5v.7Z" class="g1_1" />
<path fill-rule="evenodd" d="M877.1,606.7h.7V606h-.7v.7Z" class="g1_1" />
<path fill-rule="evenodd" d="M877.1,606.7h.7V606h-.7v.7Z" class="g1_1" />
<path fill-rule="evenodd" d="M99.8,622.5h.7V606.7h-.7v15.8Z" class="g1_1" />
<path fill-rule="evenodd" d="M877.1,622.5h.7V606.7h-.7v15.8Z" class="g1_1" />
<path fill-rule="evenodd" d="M99.8,623.3h.7v-.8h-.7v.8Z" class="g1_1" />
<path fill-rule="evenodd" d="M100.5,623.3H877.1v-.8H100.5v.8Z" class="g1_1" />
<path fill-rule="evenodd" d="M877.1,623.3h.7v-.8h-.7v.8Z" class="g1_1" />
<path fill-rule="evenodd" d="M99.8,649.5h.7V623.3h-.7v26.2Z" class="g1_1" />
<path fill-rule="evenodd" d="M877.1,649.5h.7V623.3h-.7v26.2Z" class="g1_1" />
<path fill-rule="evenodd" d="M99.8,650.2h.7v-.7h-.7v.7Z" class="g1_1" />
<path fill-rule="evenodd" d="M100.5,650.2H877.1v-.7H100.5v.7Z" class="g1_1" />
<path fill-rule="evenodd" d="M877.1,650.2h.7v-.7h-.7v.7Z" class="g1_1" />
<path fill-rule="evenodd" d="M99.8,676.4h.7V650.2h-.7v26.2Z" class="g1_1" />
<path fill-rule="evenodd" d="M877.1,676.4h.7V650.2h-.7v26.2Z" class="g1_1" />
<path fill-rule="evenodd" d="M99.8,677.2h.7v-.8h-.7v.8Z" class="g1_1" />
<path fill-rule="evenodd" d="M100.5,677.2H877.1v-.8H100.5v.8Z" class="g1_1" />
<path fill-rule="evenodd" d="M877.1,677.2h.7v-.8h-.7v.8Z" class="g1_1" />
<path fill-rule="evenodd" d="M99.8,703.2h.7v-26h-.7v26Z" class="g1_1" />
<path fill-rule="evenodd" d="M99.8,703.9h.7v-.7h-.7v.7Z" class="g1_1" />
<path fill-rule="evenodd" d="M99.8,703.9h.7v-.7h-.7v.7Z" class="g1_1" />
<path fill-rule="evenodd" d="M100.5,703.9H877.1v-.7H100.5v.7Z" class="g1_1" />
<path fill-rule="evenodd" d="M877.1,703.2h.7v-26h-.7v26Z" class="g1_1" />
<path fill-rule="evenodd" d="M877.1,703.9h.7v-.7h-.7v.7Z" class="g1_1" />
<path fill-rule="evenodd" d="M877.1,703.9h.7v-.7h-.7v.7Z" class="g1_1" />
<path fill-rule="evenodd" d="M99.8,718.8h.7V718h-.7v.8Z" class="g1_1" />
<path fill-rule="evenodd" d="M99.8,718.8h.7V718h-.7v.8Z" class="g1_1" />
<path fill-rule="evenodd" d="M100.5,718.8H519.7V718H100.5v.8Z" class="g1_1" />
<path fill-rule="evenodd" d="M519.7,718.8h.7V718h-.7v.8Z" class="g1_1" />
<path fill-rule="evenodd" d="M520.4,718.8H877.1V718H520.4v.8Z" class="g1_1" />
<path fill-rule="evenodd" d="M877.1,718.8h.7V718h-.7v.8Z" class="g1_1" />
<path fill-rule="evenodd" d="M877.1,718.8h.7V718h-.7v.8Z" class="g1_1" />
<path fill-rule="evenodd" d="M99.8,799.4h.7V718.8h-.7v80.6Z" class="g1_1" />
<path fill-rule="evenodd" d="M99.8,800.2h.7v-.8h-.7v.8Z" class="g1_1" />
<path fill-rule="evenodd" d="M99.8,800.2h.7v-.8h-.7v.8Z" class="g1_1" />
<path fill-rule="evenodd" d="M100.5,800.2H519.7v-.8H100.5v.8Z" class="g1_1" />
<path fill-rule="evenodd" d="M519.7,799.4h.7V718.8h-.7v80.6Z" class="g1_1" />
<path fill-rule="evenodd" d="M519.7,800.2h.7v-.8h-.7v.8Z" class="g1_1" />
<path fill-rule="evenodd" d="M520.4,800.2H877.1v-.8H520.4v.8Z" class="g1_1" />
<path fill-rule="evenodd" d="M877.1,799.4h.7V718.8h-.7v80.6Z" class="g1_1" />
<path fill-rule="evenodd" d="M877.1,800.2h.7v-.8h-.7v.8Z" class="g1_1" />
<path fill-rule="evenodd" d="M877.1,800.2h.7v-.8h-.7v.8Z" class="g1_1" />
</svg>
