<?xml version="1.0" encoding="UTF-8" standalone="no"?>
<!DOCTYPE svg PUBLIC "-//W3C//DTD SVG 1.1//EN"
"http://www.w3.org/Graphics/SVG/1.1/DTD/svg11.dtd">
<svg viewBox="0 0 909 1286" version="1.1" xmlns="http://www.w3.org/2000/svg" xmlns:xlink="http://www.w3.org/1999/xlink">
<defs>
<style type="text/css"><![CDATA[
.g0_1{
fill: none;
stroke: #FFFFFF;
stroke-width: 0.15277778;
stroke-linecap: butt;
stroke-linejoin: miter;
}
.g1_1{
fill: none;
stroke: #000000;
stroke-width: 1.1458334;
stroke-linecap: square;
stroke-linejoin: miter;
}
.g2_1{
}
.g3_1{
fill: #73A6FF;
}
.g4_1{
fill: #E6E6E6;
}
]]></style>
</defs>
<path d="M55,140.7H854M55,229.3H854M55,529.3H854" class="g0_1" />
<image preserveAspectRatio="none" x="55" y="55" width="799" height="76" xlink:href="img/1.png" />
<path d="M54.4,150.4v69.2m0,0H854.6m0,0V150.4m0,0H54.4" class="g1_1" />
<path d="M71,288.4H822.5v26.3H71V288.4Z" class="g2_1" />
<path d="M71,350.4H822.5v26.3H71V350.4Z" class="g2_1" />
<path d="M71,412.4H822.5v26.3H71V412.4Z" class="g2_1" />
<path d="M71,474.4H822.5v26.3H71V474.4Z" class="g2_1" />
<path d="M72.8,290.1H446v9.7H72.8v-9.7Z" class="g3_1" />
<path d="M447.7,290.1h373v9.7h-373v-9.7Z" class="g3_1" />
<path d="M72.8,301.5H446V313H72.8V301.5Z" class="g4_1" />
<path d="M447.7,301.5h373V313h-373V301.5Z" class="g4_1" />
<path d="M72.8,352.1H149v9.7H72.8v-9.7Z" class="g3_1" />
<path d="M150.8,352.1h98.9v9.7H150.8v-9.7Z" class="g3_1" />
<path d="M251.4,352.1h142v9.7h-142v-9.7Z" class="g3_1" />
<path d="M395.1,352.1H820.8v9.7H395.1v-9.7Z" class="g3_1" />
<path d="M72.8,363.5H149V375H72.8V363.5Z" class="g4_1" />
<path d="M150.8,363.5h98.9V375H150.8V363.5Z" class="g4_1" />
<path d="M251.4,363.5h142V375h-142V363.5Z" class="g4_1" />
<path d="M395.1,363.5H820.8V375H395.1V363.5Z" class="g4_1" />
<path d="M72.8,414.1H446v9.7H72.8v-9.7Z" class="g3_1" />
<path d="M447.7,414.1h373v9.7h-373v-9.7Z" class="g3_1" />
<path d="M72.8,425.5H446V437H72.8V425.5Z" class="g4_1" />
<path d="M447.7,425.5h373V437h-373V425.5Z" class="g4_1" />
<path d="M72.8,476.1h748v9.7H72.8v-9.7Z" class="g3_1" />
<path d="M72.8,487.5h748V499H72.8V487.5Z" class="g4_1" />
<path d="M68.2,271.4V503.5m0,0H825.3m0,0V271.4m0,0H68.2M65.9,251.7V507m0,0H827.6m0,0V251.7m0,0H65.9M54.4,239.1V519.6m0,0H854.6m0,0V239.1m0,0H54.4" class="g1_1" />
<path d="M236.2,299.8h46.4v-9.7H236.2v9.7Z" class="g3_1" />
<path d="M615.1,299.8h38.3v-9.7H615.1v9.7Z" class="g3_1" />
<path d="M72.8,313H446V301.5H72.8V313Z" class="g4_1" />
<path d="M447.7,313h373V301.5h-373V313Z" class="g4_1" />
<path d="M100.9,361.8h20v-9.7h-20v9.7Z" class="g3_1" />
<path d="M187,361.8h26.4v-9.7H187v9.7Z" class="g3_1" />
<path d="M303.2,361.8h38.4v-9.7H303.2v9.7Z" class="g3_1" />
<path d="M549.8,361.8H666.1v-9.7H549.8v9.7Z" class="g3_1" />
<path d="M72.8,375H149V363.5H72.8V375Z" class="g4_1" />
<path d="M150.8,375h98.9V363.5H150.8V375Z" class="g4_1" />
<path d="M251.4,375h142V363.5h-142V375Z" class="g4_1" />
<path d="M395.1,375H820.8V363.5H395.1V375Z" class="g4_1" />
<path d="M223.9,423.8h71v-9.7h-71v9.7Z" class="g3_1" />
<path d="M600.2,423.8h68.2v-9.7H600.2v9.7Z" class="g3_1" />
<path d="M72.8,437H446V425.5H72.8V437Z" class="g4_1" />
<path d="M447.7,437h373V425.5h-373V437Z" class="g4_1" />
<path d="M423.3,485.8h47v-9.7h-47v9.7Z" class="g3_1" />
<path d="M72.8,499h748V487.5H72.8V499Z" class="g4_1" />
<path d="M57.3,558.2H851.7v25.5H57.3V558.2Z" class="g2_1" />
<path d="M59,559.9h78.2V582H59V559.9Z" class="g3_1" />
<path d="M138.9,559.9h78.2V582H138.9V559.9Z" class="g3_1" />
<path d="M218.8,559.9H610.6V582H218.8V559.9Z" class="g3_1" />
<path d="M612.3,559.9h78.2V582H612.3V559.9Z" class="g3_1" />
<path d="M692.2,559.9h78.2V582H692.2V559.9Z" class="g3_1" />
<path d="M772.1,559.9H850V582H772.1V559.9Z" class="g3_1" />
<path d="M54.4,539.1v47.5m0,0H854.6m0,0V539.1m0,0H54.4" class="g1_1" />
<path d="M76.6,569.6h43v-9.7h-43v9.7Z" class="g3_1" />
<path d="M75.5,582h45.2v-9.7H75.5V582Z" class="g3_1" />
<path d="M155.4,575.8h45.2v-9.7H155.4v9.7Z" class="g3_1" />
<path d="M391.8,575.8h45.8v-9.7H391.8v9.7Z" class="g3_1" />
<path d="M623.6,569.6h55.6v-9.7H623.6v9.7Z" class="g3_1" />
<path d="M632.5,582h37.8v-9.7H632.5V582Z" class="g3_1" />
<path d="M697.8,569.6h67v-9.7h-67v9.7Z" class="g3_1" />
<path d="M712.4,582h37.8v-9.7H712.4V582Z" class="g3_1" />
<path d="M789.6,569.6h42.9v-9.7H789.6v9.7Z" class="g3_1" />
<path d="M791.9,582h38.3v-9.7H791.9V582Z" class="g3_1" />
</svg>