<?xml version="1.0" encoding="UTF-8" standalone="no"?>
<!-- Created with Inkscape (http://www.inkscape.org/) -->

<svg
   version="1.1"
   id="svg2"
   xml:space="preserve"
   width="1342.7208"
   height="1190.2223"
   viewBox="0 0 1342.7208 1190.2223"
   sodipodi:docname="98b3ca3d4e43f1273a8d55c5dff14e45.ai"
   xmlns:inkscape="http://www.inkscape.org/namespaces/inkscape"
   xmlns:sodipodi="http://sodipodi.sourceforge.net/DTD/sodipodi-0.dtd"
   xmlns="http://www.w3.org/2000/svg"
   xmlns:svg="http://www.w3.org/2000/svg"><defs
     id="defs6"><clipPath
       clipPathUnits="userSpaceOnUse"
       id="clipPath16"><path
         d="M 0,1080 H 1080 V 0 H 0 Z"
         id="path14" /></clipPath></defs><sodipodi:namedview
     id="namedview4"
     pagecolor="#ffffff"
     bordercolor="#666666"
     borderopacity="1.0"
     inkscape:pageshadow="2"
     inkscape:pageopacity="0.0"
     inkscape:pagecheckerboard="0" /><g
     id="g8"
     inkscape:groupmode="layer"
     inkscape:label="98b3ca3d4e43f1273a8d55c5dff14e45"
     transform="matrix(1.3333333,0,0,-1.3333333,-48.961797,1315.6237)"><g
       id="g10"><g
         id="g12"
         clip-path="url(#clipPath16)"><g
           id="g18"
           transform="translate(476.4955,770.2802)"><path
             d="m 0,0 c -6.601,-0.618 -13.697,-1.448 -21.413,-2.534 -19.799,-2.836 -43.348,-7.334 -71.079,-13.99 -29.545,-7.113 -63.66,-16.584 -103.051,-28.961 -20.289,-6.379 -41.348,-14.237 -62.198,-23.047 -32.474,-13.695 -64.495,-29.71 -92.348,-45.911 -10.199,-5.893 -19.742,-11.839 -28.681,-17.691 -8.27,-5.464 -15.964,-10.862 -22.83,-16.084 -9.889,-7.493 -18.201,-14.704 -24.514,-21.357 -6.291,-6.635 -10.623,-12.711 -12.58,-18.035 -2.261,-6.196 -1.318,-12.781 6.16,-13.618 11.746,-1.367 36.131,8.378 61.026,18.123 33.711,13.2 68.417,26.414 73.973,11.956 1.871,-4.744 0.554,-12.437 -4.945,-24.105 -24.952,-53.121 -45.4,-110.253 -61.168,-170.077 -15.562,-58.875 -26.739,-120.396 -33.31,-183.129 -2.252,-21.346 9.774,-29.601 21.527,-17.821 3.073,3.075 6.147,7.552 8.882,13.481 28.536,61.394 68.179,132.309 97.307,175.246 23.254,34.201 43.054,34.62 54.015,20.137 5.146,-6.751 10.623,-13.182 16.726,-19.072 6.349,-6.146 13.474,-12.026 21.247,-17.452 20.678,-14.387 45.882,-25.443 72.994,-28.465 10.249,-1.174 20.8,-1.16 31.395,0.246 33.481,4.333 63.601,17.244 86.331,31.758 17.266,11.077 30.307,23.107 37.224,33.017 3.764,5.384 5.779,10.184 5.765,13.846 0,0.872 -0.101,1.719 -0.425,2.485 -5.326,16.085 -30.638,2.094 -38.627,-2.861 -1.583,-0.949 -2.476,-1.546 -2.476,-1.546 -20.153,-7.507 -32.049,-14.683 -60.658,-13.14 -40.32,2.077 -67.28,21.648 -82.366,50.416 -11.315,21.511 -15.964,48.184 -14.488,76.492 1.317,24.203 6.189,45.38 13.711,64.227 10.349,25.946 25.773,47.344 43.507,65.812 10.587,10.947 21.059,19.88 31.186,27.193 48.293,34.739 90.31,33.488 110.024,44.354 3.808,2.052 6.823,4.558 8.809,7.848 2.419,3.95 2.75,7.604 1.447,10.774 -1.267,3.202 -4.21,5.778 -8.191,7.619 -1.554,0.693 -3.296,1.318 -5.282,1.873 C 45.781,0 36.303,1.181 23.866,1.181 16.87,1.181 8.932,0.805 0,0"
             style="fill:#2a5b8c;fill-opacity:1;fill-rule:nonzero;stroke:none"
             id="path20" /></g><g
           id="g22"
           transform="translate(959.7262,811.7382)"><path
             d="m 0,0 c -8.313,-0.742 -17.245,-1.771 -26.962,-3.103 -24.924,-3.514 -54.554,-9.071 -89.447,-17.34 -37.195,-8.845 -80.148,-20.632 -129.745,-36.056 -25.535,-7.946 -52.058,-17.758 -78.328,-28.761 -40.887,-17.122 -81.235,-37.146 -116.307,-57.427 -12.869,-7.369 -24.895,-14.813 -36.152,-22.14 -10.436,-6.835 -20.138,-13.593 -28.767,-20.151 -12.502,-9.401 -22.981,-18.425 -30.927,-26.751 -7.945,-8.357 -13.401,-15.979 -15.891,-22.674 -2.872,-7.78 -1.714,-16.05 7.7,-17.135 14.762,-1.772 45.452,10.391 76.781,22.572 42.485,16.489 86.172,32.985 93.125,14.76 2.339,-5.967 0.67,-15.639 -6.283,-30.293 -31.596,-66.726 -57.513,-138.526 -77.586,-213.714 -19.792,-74.025 -34.072,-151.368 -42.558,-230.249 -2.929,-26.839 12.185,-37.259 26.997,-22.492 3.88,3.866 7.759,9.464 11.228,16.922 36.144,77.117 86.238,166.197 123.044,220.099 29.372,42.931 54.281,43.384 68.021,25.11 6.471,-8.498 13.315,-16.626 20.973,-24.045 7.961,-7.746 16.914,-15.171 26.673,-22.024 25.946,-18.172 57.607,-32.18 91.7,-36.088 12.884,-1.511 26.155,-1.525 39.485,0.218 42.147,5.31 80.083,21.44 108.721,39.627 21.757,13.864 38.21,28.933 46.948,41.377 4.743,6.758 7.312,12.788 7.298,17.41 0.014,1.086 -0.115,2.168 -0.511,3.124 -6.657,20.253 -38.549,2.748 -48.61,-3.441 -2.008,-1.202 -3.124,-1.957 -3.124,-1.957 -25.385,-9.369 -40.377,-18.338 -76.341,-16.31 -50.712,2.773 -84.561,27.489 -103.424,63.732 -14.151,27.091 -19.915,60.681 -17.943,96.284 1.742,30.437 7.945,57.047 17.474,80.727 13.1,32.602 32.59,59.454 54.98,82.638 13.344,13.723 26.566,24.916 39.34,34.078 60.861,43.531 113.71,41.788 138.54,55.413 4.801,2.548 8.594,5.693 11.113,9.816 3.059,4.958 3.498,9.559 1.872,13.554 -1.598,4.038 -5.298,7.282 -10.293,9.615 -1.943,0.879 -4.138,1.684 -6.643,2.383 C 57.448,-0.116 45.306,1.395 29.328,1.395 20.692,1.395 10.939,0.956 0,0"
             style="fill:#2a5b8c;fill-opacity:1;fill-rule:nonzero;stroke:none"
             id="path24" /></g><g
           id="g26"
           transform="translate(339.1168,866.315)"><path
             d="m 0,0 c 0,-46.445 -37.649,-84.1 -84.093,-84.1 -46.451,0 -84.1,37.655 -84.1,84.1 0,46.441 37.649,84.09 84.1,84.09 C -37.649,84.09 0,46.441 0,0"
             style="fill:#e42d29;fill-opacity:1;fill-rule:nonzero;stroke:none"
             id="path28" /></g><g
           id="g30"
           transform="translate(780.749,884.4698)"><path
             d="m 0,0 c 0,-56.471 -45.782,-102.252 -102.252,-102.252 -56.47,0 -102.251,45.781 -102.251,102.252 0,56.468 45.781,102.248 102.251,102.248 C -45.782,102.248 0,56.468 0,0"
             style="fill:#e42d29;fill-opacity:1;fill-rule:nonzero;stroke:none"
             id="path32" /></g></g></g></g></svg>
