<?xml version="1.0" encoding="UTF-8" standalone="no"?>
<!DOCTYPE svg PUBLIC "-//W3C//DTD SVG 1.1//EN"
"http://www.w3.org/Graphics/SVG/1.1/DTD/svg11.dtd">
<svg viewBox="0 0 909 1286" version="1.1" xmlns="http://www.w3.org/2000/svg" xmlns:xlink="http://www.w3.org/1999/xlink">
<defs>
<style type="text/css"><![CDATA[
.g0_1{
}
]]></style>
</defs>
<path fill-rule="evenodd" d="M82.7,141.5h.9V97.3h-.9v44.2Z" class="g0_1" />
<path fill-rule="evenodd" d="M881.1,141.5h.9V98.3h-.9v43.2Z" class="g0_1" />
<path fill-rule="evenodd" d="M198.9,141.5h1V98.3h-1v43.2Z" class="g0_1" />
<path fill-rule="evenodd" d="M200.4,271.9h31.7v-2H200.4v2Z" class="g0_1" />
<path fill-rule="evenodd" d="M743.8,141.5h.9V98.3h-.9v43.2Z" class="g0_1" />
<path fill-rule="evenodd" d="M880.5,227.9h2V207.3h-2v20.6Z" class="g0_1" />
<path fill-rule="evenodd" d="M200.4,298.1h31.7v-2H200.4v2Z" class="g0_1" />
<path fill-rule="evenodd" d="M82.1,227.9h2V205.3h-2v22.6Z" class="g0_1" />
<path fill-rule="evenodd" d="M880.5,298.1h2V271.9h-2v26.2Z" class="g0_1" />
<path fill-rule="evenodd" d="M82.1,377.7h2V356.6h-2v21.1Z" class="g0_1" />
<path fill-rule="evenodd" d="M230.1,298.1h2V271.9h-2v26.2Z" class="g0_1" />
<path fill-rule="evenodd" d="M365.1,298.1h2V269.9h-2v28.2Z" class="g0_1" />
<path fill-rule="evenodd" d="M880.5,377.7h2V358.6h-2v19.1Z" class="g0_1" />
<path fill-rule="evenodd" d="M82.1,427.6h2V410.1h-2v17.5Z" class="g0_1" />
<path fill-rule="evenodd" d="M880.5,427.6h2V412.2h-2v15.4Z" class="g0_1" />
<path fill-rule="evenodd" d="M82.1,494.3h2V476.9h-2v17.4Z" class="g0_1" />
<path fill-rule="evenodd" d="M230.1,427.6h2V412.2h-2v15.4Z" class="g0_1" />
<path fill-rule="evenodd" d="M365.1,427.6h2V412.2h-2v15.4Z" class="g0_1" />
<path fill-rule="evenodd" d="M528.7,427.6h2V412.2h-2v15.4Z" class="g0_1" />
<path fill-rule="evenodd" d="M659.4,427.6h2V412.2h-2v15.4Z" class="g0_1" />
<path fill-rule="evenodd" d="M880.5,494.3h2V478.9h-2v15.4Z" class="g0_1" />
<path fill-rule="evenodd" d="M82.1,525.1h2V507.7h-2v17.4Z" class="g0_1" />
<path fill-rule="evenodd" d="M230.1,525.1h2V509.7h-2v15.4Z" class="g0_1" />
<path fill-rule="evenodd" d="M84.2,569.9H232.1v-2H84.2v2Z" class="g0_1" />
<path fill-rule="evenodd" d="M365.1,525.1h2V509.7h-2v15.4Z" class="g0_1" />
<path fill-rule="evenodd" d="M367.1,569.9h27v-2h-27v2Z" class="g0_1" />
<path fill-rule="evenodd" d="M501.7,298.1h2V271.9h-2v26.2Z" class="g0_1" />
<path fill-rule="evenodd" d="M528.7,525.1h2V509.7h-2v15.4Z" class="g0_1" />
<path fill-rule="evenodd" d="M503.7,569.9h27v-2h-27v2Z" class="g0_1" />
<path fill-rule="evenodd" d="M631,298.1h2V271.9h-2v26.2Z" class="g0_1" />
<path fill-rule="evenodd" d="M659.4,525.1h2V509.7h-2v15.4Z" class="g0_1" />
<path fill-rule="evenodd" d="M633,569.9h28.4v-2H633v2Z" class="g0_1" />
<path fill-rule="evenodd" d="M743.2,298.1h2V271.9h-2v26.2Z" class="g0_1" />
<path fill-rule="evenodd" d="M84.2,606.4H232.1v-2.1H84.2v2.1Z" class="g0_1" />
<path fill-rule="evenodd" d="M367.1,606.4h27v-2.1h-27v2.1Z" class="g0_1" />
<path fill-rule="evenodd" d="M503.7,606.4h27v-2.1h-27v2.1Z" class="g0_1" />
<path fill-rule="evenodd" d="M633,606.4h28.4v-2.1H633v2.1Z" class="g0_1" />
<path fill-rule="evenodd" d="M82.1,606.4h2V567.9h-2v38.5Z" class="g0_1" />
<path fill-rule="evenodd" d="M880.5,525.1h2V509.7h-2v15.4Z" class="g0_1" />
<path fill-rule="evenodd" d="M501.7,606.4h2V567.9h-2v38.5Z" class="g0_1" />
<path fill-rule="evenodd" d="M84.2,697.1h282v-2H84.2v2Z" class="g0_1" />
<path fill-rule="evenodd" d="M393,697.1H744.3v-2H393v2Z" class="g0_1" />
<path fill-rule="evenodd" d="M84.2,736.7h282v-2H84.2v2Z" class="g0_1" />
<path fill-rule="evenodd" d="M393,736.7H744.3v-2H393v2Z" class="g0_1" />
<path fill-rule="evenodd" d="M84.2,776.3h282v-2H84.2v2Z" class="g0_1" />
<path fill-rule="evenodd" d="M83.1,862.3h310v-.9H83.1v.9Z" class="g0_1" />
<path fill-rule="evenodd" d="M82.1,793.2h2V634.4h-2V793.2Z" class="g0_1" />
<path fill-rule="evenodd" d="M198.4,298.1h2V269.9h-2v28.2Z" class="g0_1" />
<path fill-rule="evenodd" d="M743.2,606.4h2V567.9h-2v38.5Z" class="g0_1" />
<path fill-rule="evenodd" d="M880.5,793.2h2V636.4h-2V793.2Z" class="g0_1" />
<path fill-rule="evenodd" d="M230.1,606.4h2V569.9h-2v36.5Z" class="g0_1" />
<path fill-rule="evenodd" d="M365.1,606.4h2V567.9h-2v38.5Z" class="g0_1" />
<path fill-rule="evenodd" d="M501.7,793.2h2V654h-2V793.2Z" class="g0_1" />
<path fill-rule="evenodd" d="M631,606.4h2V567.9h-2v38.5Z" class="g0_1" />
<path fill-rule="evenodd" d="M528.7,606.4h2V569.9h-2v36.5Z" class="g0_1" />
<path fill-rule="evenodd" d="M659.4,606.4h2V569.9h-2v36.5Z" class="g0_1" />
<path fill-rule="evenodd" d="M392,606.4h2.1V569.9H392v36.5Z" class="g0_1" />
<path fill-rule="evenodd" d="M772.5,606.4h2.1V569.9h-2.1v36.5Z" class="g0_1" />
<path fill-rule="evenodd" d="M83.6,98.3H882v-.9H83.6v.9Z" class="g0_1" />
<path fill-rule="evenodd" d="M744.7,112.9H882V112H744.7v.9Z" class="g0_1" />
<path fill-rule="evenodd" d="M199.9,126.9H882V126H199.9v.9Z" class="g0_1" />
<path fill-rule="evenodd" d="M83.6,141.5H882v-.9H83.6v.9Z" class="g0_1" />
<path fill-rule="evenodd" d="M199.3,173.8H366.2v-.9H199.3v.9Z" class="g0_1" />
<path fill-rule="evenodd" d="M84.2,207.3H882.5v-2H84.2v2Z" class="g0_1" />
<path fill-rule="evenodd" d="M84.2,227.9H882.5v-2H84.2v2Z" class="g0_1" />
<path fill-rule="evenodd" d="M367.1,271.9H882.5v-2H367.1v2Z" class="g0_1" />
<path fill-rule="evenodd" d="M367.1,298.1H882.5v-2H367.1v2Z" class="g0_1" />
<path fill-rule="evenodd" d="M84.2,358.6H882.5v-2H84.2v2Z" class="g0_1" />
<path fill-rule="evenodd" d="M84.2,377.7H882.5v-2H84.2v2Z" class="g0_1" />
<path fill-rule="evenodd" d="M84.2,412.2H882.5v-2.1H84.2v2.1Z" class="g0_1" />
<path fill-rule="evenodd" d="M84.2,427.6H882.5v-2.1H84.2v2.1Z" class="g0_1" />
<path fill-rule="evenodd" d="M84.2,478.9H882.5v-2H84.2v2Z" class="g0_1" />
<path fill-rule="evenodd" d="M84.2,494.3H882.5v-2H84.2v2Z" class="g0_1" />
<path fill-rule="evenodd" d="M84.2,509.7H882.5v-2H84.2v2Z" class="g0_1" />
<path fill-rule="evenodd" d="M84.2,525.1H882.5v-2H84.2v2Z" class="g0_1" />
<path fill-rule="evenodd" d="M745.2,569.9h29.4v-2H745.2v2Z" class="g0_1" />
<path fill-rule="evenodd" d="M745.2,606.4h29.4v-2.1H745.2v2.1Z" class="g0_1" />
<path fill-rule="evenodd" d="M84.2,636.4H882.5v-2H84.2v2Z" class="g0_1" />
<path fill-rule="evenodd" d="M84.2,654H882.5v-2H84.2v2Z" class="g0_1" />
<path fill-rule="evenodd" d="M84.2,677.3H882.5v-2H84.2v2Z" class="g0_1" />
<path fill-rule="evenodd" d="M773.5,697.1h109v-2h-109v2Z" class="g0_1" />
<path fill-rule="evenodd" d="M773.5,736.7h109v-2h-109v2Z" class="g0_1" />
<path fill-rule="evenodd" d="M503.7,776.3H744.3v-2H503.7v2Z" class="g0_1" />
<path fill-rule="evenodd" d="M84.2,793.2H882.5v-2H84.2v2Z" class="g0_1" />
<path fill-rule="evenodd" d="M529.6,862.3h352v-.9h-352v.9Z" class="g0_1" />
<image preserveAspectRatio="none" x="77" y="98" width="130" height="40" xlink:href="img/1.png" />
</svg>
