<svg xmlns="http://www.w3.org/2000/svg" height="512" width="512" style=""><rect id="backgroundrect" width="100%" height="100%" x="0" y="0" fill="none" stroke="none"/><g class="currentLayer" style=""><title>Layer 1</title><path d="m448 170.113281v-68.113281c0-44.195312-31.164062-81.105469-72.714844-89.96875-41.550781 8.863281-72.714844 45.773438-72.714844 89.96875v68.113281c0 8.109375 6.574219 14.6875 14.6875 14.6875h1.976563c8.109375 0 14.6875-6.578125 14.6875-14.6875v-38.671875c-9.585937-7.199218-15.539063-18.964844-14.632813-32.070312 1.261719-18.136719 15.960938-32.832032 34.101563-34.082032 21.503906-1.480468 39.410156 15.523438 39.410156 36.710938 0 12.039062-5.785156 22.726562-14.722656 29.441406v38.671875c0 8.109375 6.578125 14.6875 14.6875 14.6875h40.546875c8.113281 0 14.6875-6.578125 14.6875-14.6875zm0 0" fill="#abecec" id="svg_1" class="" fill-opacity="1"/><path d="m194 170.113281v-68.113281c0-43.359375-30-79.710938-70.371094-89.4375-42.71875 7.953125-75.058594 45.417969-75.058594 90.4375v68.113281c0 6.242188 3.898438 11.558594 9.390626 13.6875h7.273437c8.109375 0 14.6875-6.578125 14.6875-14.6875v-38.671875c-9.585937-7.199218-15.539063-18.964844-14.632813-32.070312 1.261719-18.136719 15.960938-32.832032 34.101563-34.082032 21.503906-1.480468 39.410156 15.523438 39.410156 36.710938 0 12.039062-5.785156 22.726562-14.722656 29.441406v38.671875c0 8.109375 6.578125 14.6875 14.6875 14.6875h40.546875c8.113281 0 14.6875-6.578125 14.6875-14.6875zm0 0" fill="#ecabab" id="svg_2" class="" fill-opacity="1" stroke-opacity="1" stroke="#f4c2c3"/><path d="m35.640625 231.851562c1.859375-1.863281 2.929687-4.441406 2.929687-7.070312 0-2.632812-1.070312-5.210938-2.929687-7.070312-1.871094-1.859376-4.441406-2.929688-7.070313-2.929688-2.640624 0-5.210937 1.070312-7.082031 2.929688-1.859375 1.859374-2.917969 4.4375-2.917969 7.070312 0 2.628906 1.058594 5.207031 2.917969 7.070312 1.871094 1.859376 4.441407 2.929688 7.082031 2.929688 2.628907 0 5.210938-1.070312 7.070313-2.929688zm0 0" id="svg_3"/><path d="m102 0c-56.242188 0-102 45.757812-102 102v68.113281c0 13.613281 11.074219 24.6875 24.6875 24.6875h40.546875c13.609375 0 24.6875-11.074219 24.6875-24.6875v-38.671875c0-3.144531-1.480469-6.105468-3.996094-7.996094-7.308593-5.492187-11.292969-14.230468-10.660156-23.382812.917969-13.222656 11.585937-23.882812 24.8125-24.796875 7.542969-.515625 14.714844 2.011719 20.203125 7.136719 5.492188 5.128906 8.519531 12.085937 8.519531 19.597656 0 8.507812-3.910156 16.324219-10.726562 21.445312-2.515625 1.890626-3.996094 4.851563-3.996094 7.996094v38.671875c0 13.613281 11.074219 24.6875 24.6875 24.6875h26.667969v233.765625c0 9.367188-2.054688 18.257813-5.714844 26.265625 0-.1875.011719-.375.011719-.5625 0-31.832031-25.894531-57.730469-57.730469-57.730469s-57.730469 25.898438-57.730469 57.730469c0 .191407.011719.375.011719.5625-3.660156-8.007812-5.714844-16.898437-5.714844-26.265625v-165.566406c0-5.523438-4.476562-10-10-10-5.523437 0-10 4.476562-10 10v165.566406c0 45.011719 35.832032 81.789063 80.46875 83.359375.980469.050781 1.972656.074219 2.964844.074219s1.984375-.023438 2.964844-.074219c44.636718-1.570312 80.46875-38.347656 80.46875-83.359375v-234.535156c10.660156-2.730469 18.566406-12.417969 18.566406-23.917969v-68.113281c0-56.242188-45.757812-102-102-102zm0 416.535156c20.804688 0 37.730469 16.929688 37.730469 37.734375 0 20.804688-16.925781 37.730469-37.730469 37.730469s-37.730469-16.925781-37.730469-37.730469c0-20.808593 16.925781-37.734375 37.730469-37.734375zm82-246.421875c0 2.582031-2.101562 4.6875-4.6875 4.6875h-40.546875c-2.582031 0-4.6875-2.105469-4.6875-4.6875v-34.03125c9.414063-8.816406 14.722656-20.976562 14.722656-34.082031 0-12.925781-5.421875-25.394531-14.871093-34.21875-9.585938-8.945312-22.097657-13.375-35.230469-12.46875-23.125 1.597656-41.777344 20.238281-43.382813 43.367188-.988281 14.1875 4.414063 27.816406 14.601563 37.394531v34.039062c0 2.582031-2.101563 4.6875-4.6875 4.6875h-40.542969c-2.585938 0-4.6875-2.105469-4.6875-4.6875v-68.113281c0-45.214844 36.785156-82 82-82s82 36.785156 82 82zm0 0" id="svg_4" class=""/><path d="m289.640625 231.851562c1.859375-1.863281 2.929687-4.441406 2.929687-7.070312 0-2.632812-1.070312-5.210938-2.929687-7.070312-1.859375-1.859376-4.441406-2.929688-7.070313-2.929688-2.628906 0-5.210937 1.070312-7.082031 2.929688-1.859375 1.859374-2.917969 4.4375-2.917969 7.070312 0 2.628906 1.058594 5.207031 2.917969 7.070312 1.871094 1.859376 4.441407 2.929688 7.082031 2.929688 2.628907 0 5.210938-1.070312 7.070313-2.929688zm0 0" id="svg_5"/><path d="m356 0c-56.242188 0-102 45.757812-102 102v68.113281c0 13.613281 11.074219 24.6875 24.6875 24.6875h40.546875c13.609375 0 24.6875-11.074219 24.6875-24.6875v-38.671875c0-3.144531-1.480469-6.105468-3.996094-7.996094-7.308593-5.492187-11.292969-14.230468-10.660156-23.382812.917969-13.222656 11.585937-23.882812 24.8125-24.796875 7.539063-.515625 14.714844 2.011719 20.203125 7.136719 5.492188 5.128906 8.519531 12.085937 8.519531 19.597656 0 8.507812-3.910156 16.324219-10.726562 21.445312-2.515625 1.890626-3.996094 4.851563-3.996094 7.996094v38.671875c0 13.613281 11.074219 24.6875 24.6875 24.6875h26.667969v233.765625c0 9.367188-2.054688 18.257813-5.714844 26.265625 0-.1875.011719-.375.011719-.5625 0-31.832031-25.894531-57.730469-57.730469-57.730469s-57.730469 25.898438-57.730469 57.730469c0 .191407.011719.375.011719.5625-3.660156-8.007812-5.714844-16.898437-5.714844-26.265625v-165.566406c0-5.523438-4.476562-10-10-10-5.523437 0-10 4.476562-10 10v165.566406c0 45.011719 35.832032 81.789063 80.46875 83.359375.980469.050781 1.972656.074219 2.964844.074219s1.984375-.023438 2.964844-.074219c44.636718-1.570312 80.46875-38.347656 80.46875-83.359375v-234.535156c10.660156-2.730469 18.566406-12.417969 18.566406-23.917969v-68.113281c0-56.242188-45.757812-102-102-102zm0 416.535156c20.804688 0 37.730469 16.929688 37.730469 37.734375 0 20.804688-16.925781 37.730469-37.730469 37.730469s-37.730469-16.925781-37.730469-37.730469c0-20.808593 16.925781-37.734375 37.730469-37.734375zm32.078125-246.421875v-34.03125c9.414063-8.816406 14.722656-20.976562 14.722656-34.082031 0-12.925781-5.421875-25.394531-14.871093-34.21875-9.585938-8.945312-22.097657-13.375-35.230469-12.46875-23.125 1.597656-41.777344 20.238281-43.382813 43.367188-.988281 14.1875 4.414063 27.816406 14.601563 37.394531v34.039062c0 2.582031-2.101563 4.6875-4.6875 4.6875h-40.542969c-2.585938 0-4.6875-2.105469-4.6875-4.6875v-68.113281c0-45.214844 36.785156-82 82-82s82 36.785156 82 82v68.113281c0 2.582031-2.105469 4.6875-4.6875 4.6875h-40.546875c-2.582031 0-4.6875-2.105469-4.6875-4.6875zm0 0" id="svg_6"/></g></svg>